<svg xmlns="http://www.w3.org/2000/svg" data-name="Layer 1" viewBox="0 0 700 550" id="couple">
  <path fill="#f4eff1" d="M636.098 434.922q-.096-2.865-.376-5.694c-2.82-28.424-15.117-55.186-18.653-83.537-3.848-30.95 2.893-61.817 7.54-92.822.083-.607.175-1.203.267-1.81.881-5.988 1.671-11.985 2.277-17.982.11-.964.202-1.92.285-2.884q.496-5.29.762-10.58.18-3.457.202-6.961c.01-.882.019-1.763.01-2.645a176.659 176.659 0 0 0-.983-17.725c-.092-.845-.184-1.69-.294-2.526-4.326-35.542-19.902-69.816-49.713-88.478a99.148 99.148 0 0 0-17.376-8.587c-.423-.174-.845-.33-1.276-.487-17.166-6.327-35.818-8.523-54.746-10.203h-.028l-.836-.083c-.018.01-.036 0-.055 0-17.054-1.497-34.32-2.617-50.916-6.015-.835-.175-1.671-.35-2.507-.542a143.98 143.98 0 0 1-15.08-4.133c-21.362-7.173-40.62-20.03-62.405-25.798-18.634-4.931-38.343-4.436-57.382-1.432-49.593 7.806-99.866 37.103-114.872 85.006-15.32 48.896 8.036 107.995-21.06 150.177-18.147 26.312-51.374 37.149-75.62 57.978-.018.018-.037.028-.055.046q-1.64 1.405-3.224 2.893a111.153 111.153 0 0 0-15.236 17.514 2.293 2.293 0 0 0-.129.193 58.8 58.8 0 0 0-1.515 2.213c-.073.092-.129.184-.193.275a115.298 115.298 0 0 0-9.533 17.505c-.083.184-.156.358-.23.533a47.507 47.507 0 0 0-.79 1.883q-.109.234-.192.468a114.05 114.05 0 0 0-5.575 17.697c-.174.781-.34 1.562-.505 2.342a110.396 110.396 0 0 0-2.039 15.338c-1.846 30.086 8.955 60.742 26.89 86.09 60.01-12.37 121.845 5.556 183.111 5.253 33.219-.156 66.17-5.694 99.315-7.944 18.313-1.24 36.672-1.478 55.022-1.58 58.998-.32 121.2 21.463 172.668 2.884a42.282 42.282 0 0 0 5.868-2.636 37.847 37.847 0 0 0 3.48-2.084 50.723 50.723 0 0 0 15.99-17.725c.138-.22.257-.441.377-.662.284-.514.56-1.028.826-1.552.12-.239.248-.486.367-.734a75.89 75.89 0 0 0 6.071-17.505 1.334 1.334 0 0 0 .046-.202 63.53 63.53 0 0 0 .46-2.269 1.098 1.098 0 0 0 .036-.165c.101-.514.193-1.038.284-1.561a91.544 91.544 0 0 0 1.295-16.127q0-1.309-.055-2.618Z"></path>
  <path fill="#f2195c" d="M388.35 368.86c2.425 1.92 4.795 3.746 7.142 5.685 1.167.968 2.23 2.075 3.343 3.131a23.339 23.339 0 0 0 3.562 2.88l-.264-.05a16.705 16.705 0 0 1 6.115-.276 20.114 20.114 0 0 1 5.829 1.96 21.146 21.146 0 0 1 4.911 3.624 23.832 23.832 0 0 1 3.753 4.714l-.083-.064 2.876 1.547-.086.18-3.007-1.273-.015-.006-.069-.058c-1.513-1.282-2.99-2.541-4.537-3.68a43.386 43.386 0 0 0-4.758-3.115 22.475 22.475 0 0 0-5.168-2.237 12.878 12.878 0 0 0-5.603-.694l-.167.026-.097-.075a35.731 35.731 0 0 0-3.818-2.584 32.578 32.578 0 0 1-3.852-2.572 33.148 33.148 0 0 1-3.39-3.17 17.638 17.638 0 0 1-2.772-3.767ZM417.241 413.88q-5.696-4.633-11.627-8.846c-3.967-2.797-8.005-5.482-12.198-7.893-1.052-.595-2.08-1.235-3.154-1.79-1.06-.599-2.114-1.068-3.27-1.82a11.167 11.167 0 0 1-1.54-1.265 16.152 16.152 0 0 1-1.273-1.457 36.02 36.02 0 0 1-2.181-3.026 52.163 52.163 0 0 1-6.203-13.356 84.12 84.12 0 0 0 7.481 12.46q1.085 1.44 2.25 2.8a10.219 10.219 0 0 0 2.506 2.26c.907.555 2.08 1.105 3.156 1.683 1.102.553 2.158 1.187 3.235 1.785a98.668 98.668 0 0 1 12.128 8.378 84.057 84.057 0 0 1 10.69 10.086Z"></path>
  <path fill="#f4dfe5" d="M205.58 443.553c-5.556-.036-4.783 8.744-10.311 10.277l-12.353-2.282c-13.61 1.368-23.714-2.43-37.399-2.521-.79-.01-1.58-.018-2.378-.037 35.376-82.435 74.307-144.298 84.612-160.15-3.674 6.567-5.18 14.309-6.41 21.83-6.163 37.82-8.128 76.228-8.083 114.543a11.533 11.533 0 0 0 .625 4.592 3.989 3.989 0 0 0 3.527 2.608s2.066.819 8.899 1.158c.689.037-19.403 9.036-20.728 9.982Z"></path>
  <path fill="#f2195c" d="m440.697 486.437-2.918 5.253c-.374.673-.84 1.417-1.598 1.563-1.008.194-1.846-.782-2.28-1.712a9.672 9.672 0 0 1-.342-7.266l-.118-.12a66.784 66.784 0 0 0 7.067 2.08Z"></path>
  <path fill="#fff" d="M526.083 428.118c12.94 8.797 21.182 22.965 32.96 33.264.565.494 1.455 1.642 1.322 2.38-.063.345 1.33 1.457 1.113 1.732-4.83 6.131-9.735 12.958-14.565 19.09-2.752-2.01-6.256-6.089-7.898-8.082l-26.962-32.747"></path>
  <path fill="#f25787" d="m513.122 445.054 25.893 31.448c1.642 1.993 5.146 6.071 7.898 8.081l14.49-18.393a5.285 5.285 0 0 0 .425-1.568c.133-.738-2.22-2.746-2.785-3.24-11.154-9.754-19.144-22.969-30.948-31.814-1.029 1.848-4.453 6.036-14.973 15.486Z"></path>
  <path fill="#f4648a" d="M514.167 444.554c-5.57 3.152-12.171 3.85-18.567 4.112-14.455.592-29.56-.903-41.946-8.38-6.412-3.873-11.844-9.201-18.224-13.128-4.824-2.97-10.126-5.098-14.97-8.035s-9.368-6.9-11.38-12.197l-.172-.514a3.893 3.893 0 0 0 2.38-1.744q2.763-3.464 5.41-7.018a34.6 34.6 0 0 0 4.764-7.848c.659-1.68 17.327.335 26.372.11l.925.152c1.467-7.87 5.775-14.869 9.87-21.748q14.67-24.654 26.985-50.612l-.292-1.183c3.066-1.409 6.234-2.892 8.425-5.46a17.925 17.925 0 0 0 3.196-6.22c1.73-5.357 2.26-11.058 4.19-16.345a33.29 33.29 0 0 1 29.014-21.302h1.33a29.574 29.574 0 0 0 4.691 4.926c7.471 6.21 17.476 8.42 25.669 13.64 7.879 5.02 13.997 13.083 15.698 22.269s-1.418 19.352-8.639 25.28a43.52 43.52 0 0 0 15.706-8.386 37.651 37.651 0 0 0 4.37-4.302l.293.252c-4.909 17.634.931 36.287 1.184 54.59.198 14.363-3.07 28.544-3.932 42.883-.589 9.807-.053 19.7-1.517 29.415-.438 2.904-1.175 5.997-3.386 7.928-2.364 2.064-5.755 2.263-8.841 2.83-4.286.786-8.595 2.622-11.216 6.104-.235-.829-.148-.714-.713-1.208-1.43-1.25-30.178-36.186-32.96-33.265-1.7 1.786-12.644 13.797-13.717 14.404Z"></path>
  <path fill="#f2195c" d="M362.592 221.576a1.505 1.505 0 0 0-1.886.264 3.906 3.906 0 0 0-.895 3.863 2.885 2.885 0 0 0 .5 1.088 1.451 1.451 0 0 0 1.02.572 1.812 1.812 0 0 0 1.261-.561 3.889 3.889 0 0 0 1.104-3.972 2.161 2.161 0 0 0-.428-.787 2.947 2.947 0 0 0-.676-.467Z"></path>
  <path fill="#f25787" d="M528.352 428.118s.615.17-.62 2.044c.053-.006.113-.035.152-.012 6.157 3.65 31.53 32.015 32.96 33.265.565.494.478.379.713 1.207 2.62-3.481 6.93-5.317 11.216-6.104 3.086-.566 6.477-.765 8.84-2.829 2.212-1.931 2.949-5.024 3.387-7.928 1.464-9.714.928-19.608 1.517-29.415.861-14.339 4.13-28.52 3.932-42.884-.253-18.302-6.093-36.956-1.184-54.589l-.293-.252a37.658 37.658 0 0 1-4.37 4.302q-.859.72-1.755 1.394s-14.14 87.403-54.495 101.8Z"></path>
  <path fill="#fe73c5" d="M512.99 445.173c.397-.196.79-.4 1.177-.62a20.214 20.214 0 0 0 2.25-2.5 308.862 308.862 0 0 1-3.426 3.12Z"></path>
  <path fill="#f2195c" d="M240.502 372.884a12.219 12.219 0 0 1 2.495-4.022 17.725 17.725 0 0 1 3.722-2.99 36.42 36.42 0 0 1 8.785-3.695 131.758 131.758 0 0 1 18.585-3.992c12.533-1.864 25.181-2.457 37.516-4.771l4.61-.902c1.52-.365 3.048-.703 4.563-1.09 1.502-.433 3.008-.835 4.508-1.292 1.5-.47 3.008-.957 4.54-1.405a31.473 31.473 0 0 1 9.579-1.563 14.748 14.748 0 0 1 4.906.95 13.625 13.625 0 0 1 4.219 2.683 28.439 28.439 0 0 1 5.585 7.892 46.13 46.13 0 0 1 3.653 8.843 28.983 28.983 0 0 1 .892 4.72 16.16 16.16 0 0 1-.261 4.806 21.435 21.435 0 0 1-4 8.573 22.523 22.523 0 0 0 3.472-8.666 19.405 19.405 0 0 0-1.051-9.15 45.462 45.462 0 0 0-3.82-8.52 27.128 27.128 0 0 0-5.497-7.346 12.405 12.405 0 0 0-8.144-3.055 29.818 29.818 0 0 0-9.015 1.58c-1.494.452-2.985.95-4.492 1.438-1.515.476-3.054.905-4.581 1.36-1.539.41-3.09.768-4.635 1.154l-4.674.954c-12.538 2.177-25.184 2.797-37.668 4.323a132.881 132.881 0 0 0-18.522 3.412 35.709 35.709 0 0 0-8.787 3.214 14.453 14.453 0 0 0-6.483 6.557Z"></path>
  <path fill="#f2195c" d="M254.696 277.605a15.21 15.21 0 0 0-6.57-1.484 18.877 18.877 0 0 0-6.606 1.22 24.069 24.069 0 0 0-10.667 7.9l.064-.102a1.137 1.137 0 0 1-.16.214l.051-.057a29.004 29.004 0 0 0-2.437 3.825l-.114.151c.04-.016.117-.16.084-.099l-.033.063-.066.127-.13.254-.262.506c-.182.336-.328.68-.491 1.02-.328.677-.61 1.377-.893 2.074a50.335 50.335 0 0 0-1.488 4.277 80.765 80.765 0 0 0-2.06 8.87c-1.072 6.005-1.863 12.096-2.748 18.15-.848 6.064-1.586 12.143-2.296 18.228-.737 6.081-1.334 12.18-1.903 18.283-.546 6.104-1.008 12.218-1.316 18.34-.18 3.06-.321 6.123-.448 9.186l-.26 9.192c-.153 6.13-.188 12.26-.156 18.391l.08 9.195a10.544 10.544 0 0 0 .648 4.25 3.288 3.288 0 0 0 2.869 2.102l.058-.004.108.018a100.472 100.472 0 0 0 18.653 1.077 127.33 127.33 0 0 0 54.071-13.507l2.097-1.04 2.037-1.154 4.068-2.32 3.948-2.519c1.318-.838 2.64-1.67 3.881-2.622l3.787-2.762c.643-.447 1.251-.937 1.847-1.444l1.806-1.495c1.2-1.002 2.418-1.985 3.606-3.002l3.485-3.168a65.82 65.82 0 0 1 7.396-6.01 30.157 30.157 0 0 1 8.675-4.05 35.097 35.097 0 0 1 9.444-1.162c3.128-.082 6.313-.178 9.224-1.382l.08.182c-2.902 1.348-6.154 1.58-9.276 1.792-1.57.11-3.135.208-4.67.444a30.519 30.519 0 0 0-4.527 1.047 29.051 29.051 0 0 0-8.25 4.142 64.865 64.865 0 0 0-7.073 6.097l-3.446 3.244c-1.184 1.052-2.399 2.068-3.597 3.104l-1.804 1.547a24.688 24.688 0 0 1-1.845 1.496l-3.791 2.87c-1.242.987-2.57 1.855-3.893 2.73l-3.966 2.63-4.125 2.373-2.067 1.18-2.128 1.067a120.31 120.31 0 0 1-36.03 11.823 127.702 127.702 0 0 1-18.932 1.669 100.545 100.545 0 0 1-18.974-1.44l.166.013a4.01 4.01 0 0 1-2.58-.934 5.39 5.39 0 0 1-1.564-2.092 11.702 11.702 0 0 1-.64-4.789l.145-9.204c.114-6.135.3-12.268.469-18.402l.706-18.393q.193-4.598.463-9.192c.137-3.066.335-6.128.501-9.193.753-12.253 1.837-24.496 3.48-36.673.418-3.043.848-6.084 1.353-9.115.489-3.032.959-6.065 1.548-9.095a82.298 82.298 0 0 1 2.198-9.02 45.323 45.323 0 0 1 1.594-4.387c.313-.714.624-1.43.982-2.125.178-.347.342-.705.534-1.039l.279-.508.14-.254.07-.127.035-.063a1.207 1.207 0 0 1 .156-.224l-.114.152a30.313 30.313 0 0 1 2.65-3.927l.051-.057a.253.253 0 0 0-.068.105l.064-.102a24.427 24.427 0 0 1 11.369-7.921 19.557 19.557 0 0 1 6.888-.983 14.984 14.984 0 0 1 6.648 1.845Z"></path>
  <path fill="#f2195c" d="M320.484 365.391a32.036 32.036 0 0 1 2.776 4.194q1.234 2.168 2.271 4.425a54.933 54.933 0 0 1 1.87 4.609 31.696 31.696 0 0 1 1.36 4.843 31.683 31.683 0 0 1-2.779-4.193 54.936 54.936 0 0 1-2.268-4.426q-1.037-2.258-1.867-4.61a32.052 32.052 0 0 1-1.363-4.842ZM309.767 364.731a77.248 77.248 0 0 1 3.49 7.02c1.071 2.374 2.032 4.791 2.972 7.216a74.301 74.301 0 0 1 2.464 7.45 25.475 25.475 0 0 1 .933 7.841 72.753 72.753 0 0 0-2.42-7.366l-2.846-7.217c-.903-2.439-1.784-4.886-2.556-7.374a77.218 77.218 0 0 1-2.037-7.57ZM210.431 498.567c9.89-6.618 19.956-12.883 29.813-19.452 2.475-1.624 4.92-3.29 7.36-4.966a105.652 105.652 0 0 0 7.114-5.23 120.571 120.571 0 0 0 6.672-5.815c2.18-2 4.225-4.14 6.212-6.355a72.767 72.767 0 0 1-11.884 13.349 82.695 82.695 0 0 1-7.028 5.588c-2.413 1.748-4.874 3.426-7.34 5.093q-3.734 2.45-7.52 4.813c-2.544 1.542-5.078 3.098-7.664 4.568q-7.716 4.477-15.735 8.407ZM354.399 385.629a16.93 16.93 0 0 1 8.737-2.892 24.398 24.398 0 0 1 9.191 1.541 47.151 47.151 0 0 1 8.298 3.984c1.324.763 2.564 1.66 3.828 2.506 1.22.915 2.428 1.843 3.587 2.833-1.401-.618-2.742-1.318-4.093-1.992-1.369-.64-2.7-1.341-4.06-1.971-1.369-.612-2.696-1.3-4.083-1.841-1.354-.624-2.747-1.126-4.135-1.631a29.97 29.97 0 0 0-8.536-1.874 23.57 23.57 0 0 0-8.734 1.337ZM450.067 393.068a43.155 43.155 0 0 1 .566 8.356 39.43 39.43 0 0 1-1.096 8.369 30.47 30.47 0 0 1-3.154 7.88 21.49 21.49 0 0 1-5.48 6.389 40.647 40.647 0 0 0 4.092-7.102 45.618 45.618 0 0 0 2.602-7.65 71.727 71.727 0 0 0 1.486-8.01ZM205.55 443.335a39.011 39.011 0 0 1 5.15-3.562 53.797 53.797 0 0 1 5.546-2.868 46.588 46.588 0 0 1 5.872-2.163 28.465 28.465 0 0 1 6.17-1.17c-1.887.937-3.757 1.784-5.627 2.633l-5.604 2.528q-2.808 1.25-5.663 2.432c-1.906.787-3.83 1.55-5.844 2.17Z"></path>
  <path fill="#f2195c" d="M179.003 482.36a61.41 61.41 0 0 0 17.837 10.823c3.221 1.338 6.517 2.494 9.851 3.539a197.27 197.27 0 0 0 5.025 1.503l2.526.716a23.008 23.008 0 0 0 2.522.62c.84.156 1.664.358 2.514.48l2.582.27c1.71.232 3.46.25 5.194.36 1.733.127 3.481.088 5.223.111l2.615.019 2.618-.08c6.98-.137 13.952-.758 20.9-1.482a307.633 307.633 0 0 0 41.285-7.257c6.802-1.633 13.514-3.622 20.147-5.852 1.681-.496 3.308-1.14 4.95-1.744l4.925-1.829c1.648-.597 3.222-1.37 4.84-2.044l4.84-2.064c-3.147 1.542-6.267 3.166-9.475 4.597l-4.857 2.044c-1.621.677-3.23 1.394-4.893 1.963-6.598 2.428-13.297 4.595-20.091 6.418l-5.1 1.36c-1.698.46-3.43.779-5.143 1.175l-5.153 1.134-5.187.97c-1.732.307-3.453.675-5.193.933l-5.216.805-2.608.403-2.618.328-5.239.647c-7.006.668-14.027 1.234-21.076 1.312l-2.642.057-2.645-.041c-1.764-.04-3.526-.016-5.292-.16-1.764-.132-3.53-.146-5.293-.425l-2.643-.348c-.88-.148-1.76-.385-2.638-.574a24.208 24.208 0 0 1-2.565-.703l-2.517-.783c-1.676-.528-3.35-1.07-5.014-1.644-3.33-1.143-6.633-2.384-9.847-3.84a58.981 58.981 0 0 1-17.449-11.717Z"></path>
  <path fill="#f2195c" d="M215.506 467.973c12.08-2.54 24.177-4.958 36.14-7.891q8.977-2.168 17.828-4.792a658.368 658.368 0 0 0 8.82-2.714c2.921-.958 5.842-1.918 8.734-2.97 11.615-4.067 23.075-8.658 34.466-13.402 11.414-4.688 22.813-9.453 34.554-13.36a85.382 85.382 0 0 1 8.959-2.624 15.716 15.716 0 0 1 4.823-.236 14.011 14.011 0 0 1 4.631 1.5 31.223 31.223 0 0 1 4.015 2.532q1.893 1.37 3.715 2.833a86.52 86.52 0 0 1 6.95 6.246 82.721 82.721 0 0 1 6.266 6.973 20.891 20.891 0 0 1 2.554 4.126 10.24 10.24 0 0 1 .983 4.987 9.058 9.058 0 0 1-1.878 4.786 22.998 22.998 0 0 1-3.384 3.46c-1.175 1.025-2.333 1.999-3.332 3.057a21.719 21.719 0 0 0-2.62 3.543c-1.566 2.556-2.828 5.405-4.617 8.067a23.578 23.578 0 0 1-6.858 6.688c-5.41 3.47-11.602 5.04-17.652 6.275-6.087 1.165-12.159 2.153-18.239 3.239a52.97 52.97 0 0 1-9.24 1.111 16.316 16.316 0 0 1-4.644-.597 10.353 10.353 0 0 1-4.082-2.24l.132-.15a12.184 12.184 0 0 0 8.582 2.357 59.047 59.047 0 0 0 9.062-1.475l18.107-3.775c5.959-1.331 11.94-3.014 16.91-6.352a22.877 22.877 0 0 0 6.24-6.206c1.653-2.47 2.896-5.297 4.535-8.012a23.766 23.766 0 0 1 2.862-3.893c1.115-1.19 2.323-2.207 3.466-3.215 2.283-1.98 4.375-4.144 4.572-6.835.233-2.678-1.26-5.392-3.036-7.744a81.06 81.06 0 0 0-6.026-6.85 91.217 91.217 0 0 0-6.731-6.206 50.552 50.552 0 0 0-7.346-5.323 12.477 12.477 0 0 0-4.098-1.423 14.387 14.387 0 0 0-4.388.097 84.854 84.854 0 0 0-8.863 2.323 331.934 331.934 0 0 0-34.616 12.955l-8.506 3.646-8.49 3.695c-5.674 2.433-11.383 4.804-17.174 6.98-5.808 2.129-11.671 4.131-17.625 5.811q-8.923 2.55-17.971 4.6c-12.068 2.699-24.247 4.775-36.454 6.594Z"></path>
  <path fill="#f2195c" d="M390.721 458.928a56.228 56.228 0 0 0 11.06 8.951 132.984 132.984 0 0 0 12.546 6.751l6.453 3.134c2.14 1.068 4.3 2.081 6.453 3.107a117.88 117.88 0 0 0 13.275 5.364 61.98 61.98 0 0 1-13.892-3.93c-4.493-1.77-8.824-3.812-13.165-5.878a87.649 87.649 0 0 1-12.537-7.258 39.921 39.921 0 0 1-10.193-10.24ZM453.17 390.096a41.684 41.684 0 0 1 12.405-4.516 48.744 48.744 0 0 1 26.27 2.058 41.594 41.594 0 0 1 11.548 6.397 66.421 66.421 0 0 0-12.039-4.916 62.374 62.374 0 0 0-25.525-2.005 66.188 66.188 0 0 0-12.658 2.982Z"></path>
  <path fill="#f2195c" d="M499.857 336.098a515.027 515.027 0 0 1-3.43 12.77 587.516 587.516 0 0 1-3.693 12.678c-1.307 4.205-2.638 8.407-4.12 12.563-1.471 4.158-3.047 8.288-4.915 12.3a501.465 501.465 0 0 1 3.427-12.77 576.635 576.635 0 0 1 3.696-12.678c1.31-4.205 2.64-8.407 4.123-12.562 1.471-4.158 3.046-8.289 4.912-12.3ZM433.56 484.275a10.267 10.267 0 0 0-.248 4.044 8.313 8.313 0 0 0 1.389 3.634 1.59 1.59 0 0 0 1.26.752c.391-.033.74-.424 1.043-.978l1.89-3.643c2.535-4.892 5.173-9.727 7.83-14.551 2.691-4.806 5.403-9.6 8.218-14.337 2.78-4.756 5.767-9.354 7.568-14.59-1.047 5.457-3.664 10.498-6.204 15.348-2.536 4.892-5.174 9.727-7.834 14.55-2.693 4.804-5.405 9.598-8.22 14.335-.715 1.192-1.376 2.353-2.137 3.57a4.262 4.262 0 0 1-.792.924 2.136 2.136 0 0 1-1.306.514 2.114 2.114 0 0 1-1.296-.44 3.373 3.373 0 0 1-.814-.889 8.974 8.974 0 0 1-1.12-4.152 9.19 9.19 0 0 1 .772-4.09ZM455.243 491.765c2.324-3.034 4.543-6.093 6.581-9.26a103.677 103.677 0 0 0 10.041-20.13c1.304-3.534 2.415-7.145 3.445-10.827a51.77 51.77 0 0 1-1.96 11.31 62.087 62.087 0 0 1-10.252 20.538 51.954 51.954 0 0 1-7.855 8.37ZM437.178 494.572a52.793 52.793 0 0 1 14.23-.466c4.748.4 9.435 1.007 14.145 1.352 9.421.725 18.878.97 28.353 1.216l14.212.45a128.422 128.422 0 0 0 14.1.138 23.86 23.86 0 0 0 6.717-1.476 15.382 15.382 0 0 0 5.65-3.8c1.639-1.65 3.055-3.57 4.654-5.343a14.088 14.088 0 0 1 5.728-4.183 14.841 14.841 0 0 0-5.324 4.526c-1.464 1.843-2.747 3.842-4.34 5.666a16.43 16.43 0 0 1-5.86 4.342 24.433 24.433 0 0 1-7.061 1.82 54.329 54.329 0 0 1-7.2.323l-7.117-.12-14.216-.345c-9.474-.286-18.981-.617-28.441-1.666-4.737-.483-9.427-1.303-14.103-1.931a57.731 57.731 0 0 0-14.127-.503Z"></path>
  <path fill="#f2195c" d="M551.222 294.742a12.32 12.32 0 0 1 4.4 5.047 23.695 23.695 0 0 1 2.05 6.44 84.278 84.278 0 0 1 1.183 13.353c.046 2.235-.025 4.472-.155 6.705a83.036 83.036 0 0 1-.63 6.68 85.938 85.938 0 0 1-2.8 13.106l.013-.066-.413 2.21-.195 1.044-.797-.653a85.75 85.75 0 0 0-11.845-8.334 56.297 56.297 0 0 0-6.5-3.194 44.5 44.5 0 0 0-6.84-2.284c-4.688-.883-9.579-.482-14.358-.002a168.067 168.067 0 0 0-14.3 2.208l-1.417.28.346-1.41c1.425-5.815 2.829-11.652 4.536-17.424a124.719 124.719 0 0 1 6.261-16.962c1.288-2.734 2.669-5.427 4.217-8.026a41.991 41.991 0 0 1 5.317-7.405 22.158 22.158 0 0 1 7.354-5.426 14.984 14.984 0 0 1 8.936-1.097l-.033.197a14.924 14.924 0 0 0-8.533 1.686 21.324 21.324 0 0 0-6.72 5.524 46.398 46.398 0 0 0-4.861 7.355c-1.437 2.593-2.707 5.275-3.886 7.995a153.105 153.105 0 0 0-6.013 16.77c-1.737 5.699-3.276 11.473-4.79 17.265l-1.07-1.13a136.33 136.33 0 0 1 14.537-1.787 90.995 90.995 0 0 1 7.331-.179 34.463 34.463 0 0 1 7.32.824 61.445 61.445 0 0 1 13.48 5.66 109.627 109.627 0 0 1 12.292 7.917l-.992.39.305-2.228.002-.015.012-.05a128.07 128.07 0 0 0 2.334-12.989 111.862 111.862 0 0 0 .914-13.153c.041-2.2-.031-4.401-.123-6.601-.099-2.2-.236-4.409-.534-6.57a26.552 26.552 0 0 0-1.608-6.313 12.569 12.569 0 0 0-3.84-5.193ZM448.177 200.94a11.735 11.735 0 0 0-.566 5.802 21.16 21.16 0 0 0 1.645 5.592c1.572 3.59 3.897 6.95 5.27 10.898a27.386 27.386 0 0 1 1.24 6.066c.193 2.042.206 4.077.194 6.102.006 2.015-.113 4.064-.09 6.039a6.502 6.502 0 0 0 .613 2.767 2.357 2.357 0 0 0 2.005 1.334 22.956 22.956 0 0 0 2.919-.34 4.464 4.464 0 0 1 1.765.152 4.223 4.223 0 0 1 1.573.935 13.173 13.173 0 0 1 1.944 2.57 8.149 8.149 0 0 0 1.76 2.085 23.506 23.506 0 0 0 2.385 1.648c.863.555 1.72 1.144 2.546 1.766a35.399 35.399 0 0 1 4.597 4.165q1.046 1.148 2 2.374c.647.809 1.222 1.707 1.777 2.36a2.253 2.253 0 0 0 1.833.995 3.497 3.497 0 0 0 2.085-1.126c.637-.617 1.21-1.46 1.916-2.252a5.588 5.588 0 0 1 2.734-1.866 16.876 16.876 0 0 1 3.09-.22 2.946 2.946 0 0 0 2.416-1.257l.183.079a2.395 2.395 0 0 1-1.011 1.225 4.718 4.718 0 0 1-1.486.59 24.18 24.18 0 0 0-2.895.55 4.46 4.46 0 0 0-2.013 1.721 28.86 28.86 0 0 1-1.793 2.516 5.08 5.08 0 0 1-3.05 1.815 3.491 3.491 0 0 1-1.975-.345 5.268 5.268 0 0 1-1.46-1.111c-.796-.844-1.317-1.65-1.953-2.394q-.935-1.136-1.955-2.196a42.256 42.256 0 0 0-4.32-3.978 39.497 39.497 0 0 0-2.364-1.76 25.026 25.026 0 0 1-2.519-1.878 9.445 9.445 0 0 1-2.033-2.584 12.037 12.037 0 0 0-1.539-2.348 2.758 2.758 0 0 0-2.177-.868 21.311 21.311 0 0 1-3.1.065 3.412 3.412 0 0 1-1.625-.677 3.484 3.484 0 0 1-1.035-1.373 8.176 8.176 0 0 1-.517-3.125c.064-2.054.183-4.032.121-6.047a32.116 32.116 0 0 0-2.343-11.586c-1.481-3.609-3.684-7.02-5.15-10.904a18.931 18.931 0 0 1-1.27-6.093 10.885 10.885 0 0 1 1.448-5.972Z"></path>
  <path fill="#f2195c" d="M497.199 225.328a22.459 22.459 0 0 0-.767 6.49 55.87 55.87 0 0 0 .626 6.527c.625 4.338 1.584 8.728 1.354 13.294a26.937 26.937 0 0 1-4.17 12.853c-1.16 1.936-2.445 3.727-3.552 5.575a16.813 16.813 0 0 0-2.355 5.841c-.751 4.18.462 8.535 1.647 12.748.618 2.119 1.238 4.252 1.687 6.436a21.983 21.983 0 0 1 .393 6.685 15.885 15.885 0 0 1-2.156 6.359 20.061 20.061 0 0 1-4.305 5.184 28.807 28.807 0 0 1-12.063 5.873l.124-1.474a8.768 8.768 0 0 0 4.76.318 23.156 23.156 0 0 0 4.81-1.594c3.151-1.453 6.442-2.84 8.824-5.08 2.39-2.21 3.533-5.486 4.447-8.8.887-3.335 1.493-6.808 2.403-10.274a33.06 33.06 0 0 1 11.475-17.958 34.97 34.97 0 0 1 9.325-5.277 30.835 30.835 0 0 1 10.437-1.96l.009.2a33.673 33.673 0 0 0-18.83 8.168 32.133 32.133 0 0 0-6.625 7.839 33.794 33.794 0 0 0-3.797 9.498c-.827 3.363-1.387 6.854-2.337 10.323a30.998 30.998 0 0 1-1.822 5.15 14.494 14.494 0 0 1-3.31 4.569 20.69 20.69 0 0 1-4.608 3.065c-1.623.816-3.216 1.525-4.873 2.229a22.916 22.916 0 0 1-5.244 1.587 10.393 10.393 0 0 1-5.633-.568l-2.29-.97 2.414-.504a27.847 27.847 0 0 0 11.77-5.126 18.851 18.851 0 0 0 4.3-4.798 15.191 15.191 0 0 0 2.152-6.058 18.823 18.823 0 0 0-.37-6.478 62.217 62.217 0 0 0-1.823-6.332 63.939 63.939 0 0 1-1.883-6.403 19.649 19.649 0 0 1-.418-6.796 17.203 17.203 0 0 1 2.294-6.47c1.1-1.979 2.381-3.79 3.485-5.646a26.48 26.48 0 0 0 4.091-12.03c.3-4.282-.398-8.654-.839-13.062a42.057 42.057 0 0 1-.252-6.677 20.715 20.715 0 0 1 1.305-6.54Z"></path>
  <path fill="#f2195c" d="M524.644 223.8a36.157 36.157 0 0 1 3.563 10.91 47.88 47.88 0 0 1 .475 11.542 57.457 57.457 0 0 1-2.093 11.332 59.618 59.618 0 0 1-4.19 10.664c.961-3.695 1.915-7.353 2.675-11.038a88.918 88.918 0 0 0 1.616-11.114 66.505 66.505 0 0 0-.025-11.188 63.026 63.026 0 0 0-2.02-11.109Z"></path>
  <path fill="#f2195c" d="M486.03 228.778a23.194 23.194 0 0 1-10.79-5.8 25.515 25.515 0 0 1-3.921-4.811c-1.134-1.72-2.168-3.48-3.434-5.036a27.712 27.712 0 0 0-9.368-7.423 42.644 42.644 0 0 0-11.463-3.73l.526-.104a2.932 2.932 0 0 1-1.986.427 3.79 3.79 0 0 1-1.772-.735 5.244 5.244 0 0 1-1.776-3.094 17.326 17.326 0 0 1-.023-6.507 18.085 18.085 0 0 1 2.296-6.061 29.525 29.525 0 0 1 3.921-5.058c1.45-1.542 2.963-2.972 4.468-4.415a165.642 165.642 0 0 1 4.612-4.243 89.185 89.185 0 0 1 9.935-7.712c6.986-4.629 15.012-8.106 23.505-8.745a34.132 34.132 0 0 1 12.591 1.27 24.253 24.253 0 0 1 5.811 2.62 20.86 20.86 0 0 1 4.799 4.192c2.766 3.238 4.635 7.036 6.489 10.745q2.77 5.581 5.796 11.021a226.44 226.44 0 0 0 13.287 21.053c4.779 6.787 9.927 13.343 14.296 20.469 2.209 3.549 4.055 7.316 5.995 10.963a39.252 39.252 0 0 0 7.02 9.993l.05.048.044.066c4.945 7.305 10.544 14.172 15.695 21.429 5.125 7.252 9.803 15.006 12.627 23.596a30.194 30.194 0 0 1 1.526 13.543 27.903 27.903 0 0 1-5.404 12.549 39.982 39.982 0 0 1-9.917 9.278 44.558 44.558 0 0 1-12.283 5.72l-4.77 1.384 3.838-3.149a23.72 23.72 0 0 0 7.12-10.29 27.344 27.344 0 0 0 1.487-12.547 29.714 29.714 0 0 0-4.286-11.986 35.896 35.896 0 0 0-8.612-9.532c-6.831-5.368-15.572-7.723-23.205-12.29a31.241 31.241 0 0 1-9.817-8.922 30.334 30.334 0 0 1-5.096-12.164l.197-.037a29.938 29.938 0 0 0 5.38 11.851 28.973 28.973 0 0 0 4.464 4.742 37.197 37.197 0 0 0 5.36 3.7c7.553 4.336 16.358 6.476 23.628 11.924a37.48 37.48 0 0 1 9.12 9.846 31.462 31.462 0 0 1 4.69 12.638 29.19 29.19 0 0 1-1.428 13.457 25.735 25.735 0 0 1-7.71 11.184l-.93-1.764a42.505 42.505 0 0 0 11.7-5.488 37.898 37.898 0 0 0 9.375-8.81 26.655 26.655 0 0 0 5.047-11.596 28.198 28.198 0 0 0-1.361-12.644c-2.661-8.307-7.187-15.942-12.201-23.172-4.994-7.27-10.5-14.24-15.38-21.688l.095.113a40.447 40.447 0 0 1-7.11-10.43c-1.908-3.719-3.666-7.457-5.795-11.006-4.206-7.136-9.234-13.772-14.01-20.583-4.761-6.83-9.187-13.888-13.321-21.112q-3.083-5.429-5.9-11.003a48.953 48.953 0 0 0-6.553-10.432 19.775 19.775 0 0 0-4.633-3.889 23.133 23.133 0 0 0-5.574-2.377 32.753 32.753 0 0 0-12.1-.98 44.894 44.894 0 0 0-11.842 2.938 57.7 57.7 0 0 0-10.82 5.767 131.975 131.975 0 0 0-18.782 16.049c-2.829 2.926-5.188 6.317-5.885 10.265a15.863 15.863 0 0 0-.034 5.888 3.823 3.823 0 0 0 1.2 2.24 1.88 1.88 0 0 0 2.07.293l.243-.16.283.057a43.95 43.95 0 0 1 11.744 4.07 28.795 28.795 0 0 1 9.583 7.895 57.833 57.833 0 0 1 3.341 5.202 24.793 24.793 0 0 0 3.68 4.797 23.442 23.442 0 0 0 10.405 6.049Z"></path>
  <path fill="#f2195c" d="M466.462 211.296a27.09 27.09 0 0 0 7.165 3.271 24.774 24.774 0 0 0 3.811.802q.964.12 1.93.182a9.6 9.6 0 0 0 1.824-.017c.546-.104.78-.274.903-.619a4.567 4.567 0 0 0 .138-1.606 33.625 33.625 0 0 0-.648-3.823 8.913 8.913 0 0 1 .18-4.416 4.95 4.95 0 0 1 1.325-2.06 5.13 5.13 0 0 1 2.146-1.169 6.83 6.83 0 0 1 4.56.444 10.315 10.315 0 0 1 3.413 2.709 29.731 29.731 0 0 1 2.389 3.354 26.005 26.005 0 0 1 1.935 3.614 17.937 17.937 0 0 1 1.239 3.954 12.474 12.474 0 0 1 .034 4.163 5.266 5.266 0 0 1-2.033 3.64 2.8 2.8 0 0 1-2.076.37 2.016 2.016 0 0 1-1.538-1.246 1.866 1.866 0 0 0 1.582.947 2.383 2.383 0 0 0 1.708-.52 4.628 4.628 0 0 0 1.383-3.317 13.838 13.838 0 0 0-1.712-7.327 32.027 32.027 0 0 0-1.99-3.32 28.054 28.054 0 0 0-2.341-3.06 8.776 8.776 0 0 0-2.808-2.185 4.899 4.899 0 0 0-3.225-.29 2.974 2.974 0 0 0-2.15 1.948 7.413 7.413 0 0 0-.156 3.47 33.949 33.949 0 0 1 .53 4.058 5.733 5.733 0 0 1-.348 2.322 2.442 2.442 0 0 1-.968 1.109 3.093 3.093 0 0 1-1.266.397 10.749 10.749 0 0 1-2.155-.09 22.423 22.423 0 0 1-2.023-.33 25.015 25.015 0 0 1-3.909-1.163 22.785 22.785 0 0 1-6.85-4.196Z"></path>
  <path fill="#f2195c" d="M490.536 213.026a2.803 2.803 0 0 0-.015 2.128 2.014 2.014 0 0 0 1.107 1.111 9.979 9.979 0 0 1 2.23 1.25 2.98 2.98 0 0 1 .835 1.287 1.44 1.44 0 0 1-.269 1.433 1.45 1.45 0 0 0-.582-.943 3.166 3.166 0 0 0-.868-.476 15.97 15.97 0 0 1-2.267-.776 3.392 3.392 0 0 1-1.251-1.07 2.881 2.881 0 0 1-.487-1.602 2.357 2.357 0 0 1 1.567-2.342Z"></path>
  <path fill="#f2195c" d="M487.617 214.666a4.269 4.269 0 0 1 .135-7.147 3.854 3.854 0 0 1 2.237-.6 2.84 2.84 0 0 1 2.152 1.123 3.993 3.993 0 0 1 .725 1.95c.06.642.05 1.229.049 1.863-.795-1.003-1.194-2.243-1.931-2.748a1.354 1.354 0 0 0-1.019-.292 2.52 2.52 0 0 0-1.15.397 3.41 3.41 0 0 0-1.5 2.176 6.15 6.15 0 0 0 .302 3.278ZM453.625 217.74a8.921 8.921 0 0 1 2.414-2.325 12.288 12.288 0 0 1 6.289-2.044 8.857 8.857 0 0 1 3.319.468c-1.057.443-2.064.753-3.054 1.083l-2.933.942-2.928.956c-.996.314-1.993.655-3.107.92ZM467.497 250.848a20.164 20.164 0 0 1 2.182-2.624 76.313 76.313 0 0 1 2.325-2.297l2.339-2.222c.792-.742 1.563-1.51 2.455-2.295a8.598 8.598 0 0 1-1.225 3.274 13.181 13.181 0 0 1-2.19 2.69 15.816 15.816 0 0 1-2.728 2.076 12.94 12.94 0 0 1-3.158 1.398Z"></path>
  <path fill="#f2195c" d="M474.528 240.273a1.844 1.844 0 0 1 1.308-.553 2.35 2.35 0 0 1 2.155 1.35 1.835 1.835 0 0 1 .069 1.42 10.284 10.284 0 0 1-1.208-.336 3.984 3.984 0 0 1-.803-.382 4.17 4.17 0 0 1-.692-.56 10.733 10.733 0 0 1-.829-.94ZM519.431 447.591a19.282 19.282 0 0 1 2.183-3.211 32.799 32.799 0 0 1 2.57-2.814 32.278 32.278 0 0 1 2.879-2.498 19.067 19.067 0 0 1 3.27-2.096 19.073 19.073 0 0 1-2.181 3.214 32.272 32.272 0 0 1-2.572 2.812 32.819 32.819 0 0 1-2.881 2.495 19.284 19.284 0 0 1-3.268 2.098ZM522.498 451.548a20.529 20.529 0 0 1 2.408-3.207 35.063 35.063 0 0 1 2.778-2.794 34.533 34.533 0 0 1 3.074-2.465 20.311 20.311 0 0 1 3.448-2.048 20.31 20.31 0 0 1-2.406 3.209 34.517 34.517 0 0 1-2.78 2.792 35.079 35.079 0 0 1-3.075 2.463 20.527 20.527 0 0 1-3.447 2.05ZM525.884 456.02a22.938 22.938 0 0 1 2.675-3.295 39.42 39.42 0 0 1 3.035-2.871 38.792 38.792 0 0 1 3.32-2.535 22.69 22.69 0 0 1 3.684-2.108 22.688 22.688 0 0 1-2.673 3.297 38.789 38.789 0 0 1-3.036 2.869 39.422 39.422 0 0 1-3.323 2.533 22.938 22.938 0 0 1-3.682 2.11ZM529.876 460.34a24.314 24.314 0 0 1 2.666-3.223q1.427-1.49 2.972-2.837a43.527 43.527 0 0 1 3.22-2.55 24.031 24.031 0 0 1 3.566-2.187 20.492 20.492 0 0 1-2.524 3.35 33.358 33.358 0 0 1-2.951 2.897 33.85 33.85 0 0 1-3.282 2.515 20.695 20.695 0 0 1-3.667 2.034ZM534.206 465.199a24.585 24.585 0 0 1 2.738-3.44 42.396 42.396 0 0 1 3.105-3.021 41.71 41.71 0 0 1 3.396-2.69 24.311 24.311 0 0 1 3.766-2.27 24.322 24.322 0 0 1-2.737 3.442 41.734 41.734 0 0 1-3.106 3.02 42.389 42.389 0 0 1-3.398 2.688 24.583 24.583 0 0 1-3.764 2.27ZM537.454 469.357a27.364 27.364 0 0 1 2.685-3.24 54.675 54.675 0 0 1 6.084-5.566 26.999 26.999 0 0 1 3.47-2.383 19.231 19.231 0 0 1-2.381 3.501 30.011 30.011 0 0 1-2.887 3.026 30.386 30.386 0 0 1-3.274 2.602 19.413 19.413 0 0 1-3.697 2.06ZM542.092 472.724a20.777 20.777 0 0 1 2.295-3.294 34.85 34.85 0 0 1 2.666-2.88 34.273 34.273 0 0 1 2.973-2.563 20.55 20.55 0 0 1 3.377-2.173 19.991 19.991 0 0 1-2.279 3.282 34.54 34.54 0 0 1-2.683 2.893 35.126 35.126 0 0 1-2.989 2.574 20.214 20.214 0 0 1-3.36 2.161ZM545.811 478.362a24.53 24.53 0 0 1 2.35-3.34 46.67 46.67 0 0 1 5.553-5.755 24.233 24.233 0 0 1 3.256-2.465 18.757 18.757 0 0 1-2.107 3.52 29.774 29.774 0 0 1-2.61 3.092 30.167 30.167 0 0 1-3 2.716 18.944 18.944 0 0 1-3.442 2.232ZM415.604 407.347c1.517 1.576 2.996 3.099 4.546 4.532a60.788 60.788 0 0 0 10.067 7.521c1.814 1.08 3.692 2.069 5.632 3.08a21.67 21.67 0 0 1-6.336-1.687 27.564 27.564 0 0 1-10.495-7.849 21.767 21.767 0 0 1-3.414-5.597ZM417.486 404.326c1.78 1.043 3.452 2.173 5.114 3.306l4.949 3.416 4.905 3.478c1.633 1.174 3.266 2.359 4.855 3.676a31.911 31.911 0 0 1-5.671-2.345 46.111 46.111 0 0 1-10.006-7.008 32.142 32.142 0 0 1-4.146-4.523ZM419.269 401.355a57.108 57.108 0 0 1 5.401 2.51q2.626 1.358 5.175 2.825c1.703.976 3.377 2.002 5.038 3.063a56.33 56.33 0 0 1 4.875 3.422 36.71 36.71 0 0 1-5.617-2.05 57.085 57.085 0 0 1-5.295-2.703 57.766 57.766 0 0 1-4.99-3.233 37.052 37.052 0 0 1-4.587-3.834ZM422.436 399.051a35.08 35.08 0 0 1 5.654 1.594 54.106 54.106 0 0 1 5.379 2.283 53.505 53.505 0 0 1 5.101 2.849 34.765 34.765 0 0 1 4.723 3.494 56.086 56.086 0 0 1-5.454-2.115 126.518 126.518 0 0 1-5.25-2.432q-2.596-1.27-5.138-2.662a56.92 56.92 0 0 1-5.015-3.01ZM422.534 395.077a49.637 49.637 0 0 1 6.065 1.61q2.969.962 5.857 2.125a86.1 86.1 0 0 1 5.692 2.534 49.074 49.074 0 0 1 5.481 3.055 49.092 49.092 0 0 1-6.066-1.608 86.164 86.164 0 0 1-5.856-2.127q-2.887-1.163-5.69-2.537a49.632 49.632 0 0 1-5.483-3.052ZM424.337 391.477c2.065.29 4.065.726 6.052 1.19q2.98.696 5.92 1.486c1.962.524 3.913 1.094 5.864 1.69 1.95.598 3.897 1.229 5.828 2.02a36.925 36.925 0 0 1-6.177-.499 55.642 55.642 0 0 1-6.037-1.28 56.23 56.23 0 0 1-5.86-1.933 37.238 37.238 0 0 1-5.59-2.674ZM496.803 438.005c1.44-.404 2.798-.772 4.12-1.208a39.826 39.826 0 0 0 3.846-1.502 40.543 40.543 0 0 0 3.67-1.89c1.203-.703 2.377-1.476 3.635-2.286a11.12 11.12 0 0 1-2.71 3.543 14.708 14.708 0 0 1-8.111 3.655 11.17 11.17 0 0 1-4.45-.312ZM218.742 420.6a18.588 18.588 0 0 0 1.488 3.255 6.264 6.264 0 0 0 2.451 1.924 23.73 23.73 0 0 0 3.219 1.287 35.341 35.341 0 0 1 3.52 1.297 13.005 13.005 0 0 1-3.835.244 10.33 10.33 0 0 1-3.812-1.047 5.821 5.821 0 0 1-2.942-2.999 6.741 6.741 0 0 1-.09-3.96ZM242.822 303.603c-1.228 2.98-2.396 5.934-3.413 8.932-1.004 3-1.9 6.026-2.6 9.099-.736 3.064-1.279 6.173-1.712 9.306-.421 3.138-.689 6.303-.916 9.519a42.12 42.12 0 0 1-.639-9.654 51.715 51.715 0 0 1 4.42-18.837 42.292 42.292 0 0 1 4.86-8.365ZM158.57 424.719c1.31-3.465 2.832-6.83 4.448-10.146 1.606-3.322 3.348-6.573 5.142-9.794 1.827-3.203 3.708-6.376 5.72-9.469 2.002-3.098 4.095-6.14 6.385-9.052-1.582 3.35-3.297 6.607-5.041 9.846-1.733 3.245-3.533 6.448-5.323 9.657-1.822 3.19-3.632 6.388-5.514 9.549-1.87 3.168-3.77 6.321-5.816 9.409ZM571.194 390.942a107.724 107.724 0 0 1 .118 11.447c-.132 3.814-.455 7.616-.867 11.409-.448 3.788-1.002 7.565-1.733 11.31a49.394 49.394 0 0 1-1.309 5.62 10.572 10.572 0 0 1-1.3 2.65 5.526 5.526 0 0 1-2.2 1.885 7.593 7.593 0 0 0 2.552-4.791c.356-1.805.472-3.718.714-5.6l1.29-11.301 1.303-11.3c.434-3.771.868-7.546 1.432-11.329ZM355.69 220.073a6.382 6.382 0 0 1 2.342-2.34 8.814 8.814 0 0 1 6.281-1.045 6.339 6.339 0 0 1 2.972 1.463 21.005 21.005 0 0 1-2.989.895 46.55 46.55 0 0 1-5.49.906 21.57 21.57 0 0 1-3.116.121Z"></path>
  <path fill="#f2195c" d="M327.833 244.642a5.135 5.135 0 0 0-1.117 3.16 6.84 6.84 0 0 0 .78 3.218 16.473 16.473 0 0 0 4.607 4.987 56.247 56.247 0 0 0 12.057 7.03c2.13.987 4.31 1.895 6.52 2.737q1.659.632 3.335 1.228a8.474 8.474 0 0 0 3.328.733 3.001 3.001 0 0 0 2.697-1.495 9.978 9.978 0 0 0 .557-3.38c.176-2.363.284-4.745.406-7.096a6.685 6.685 0 0 0-.51-3.17 2.335 2.335 0 0 0-.96-.976 33.908 33.908 0 0 0-1.515-.842c-1.046-.558-2.082-1.069-3.176-1.668l-.111-.064a.712.712 0 0 1-.122-.083 1.264 1.264 0 0 1-.123-.11c-.033-.052-.06-.006-.203-.325a.94.94 0 0 1 .04-.726.998.998 0 0 1 .349-.376.694.694 0 0 1 .18-.087l.108-.034a1.75 1.75 0 0 1 .247-.046 5.333 5.333 0 0 1 .537-.03l.913.005 1.755.001a11.472 11.472 0 0 0 3.206-.385 1.507 1.507 0 0 0 .262-.117 1.023 1.023 0 0 0 .206-.15 7.346 7.346 0 0 0 .574-.532 6.602 6.602 0 0 0 .936-1.22 6.457 6.457 0 0 0 .35-.681 8.156 8.156 0 0 1 .477-.899 8.869 8.869 0 0 1 1.251-1.584 9.674 9.674 0 0 1 3.319-2.176c.648-.248 1.193-.386 1.724-.576a9.396 9.396 0 0 0 1.465-.621 2.706 2.706 0 0 0 .512-.361.607.607 0 0 0 .2-.303 3.504 3.504 0 0 0 .104-1.373 15.102 15.102 0 0 0-.912-3.209 71.71 71.71 0 0 1-1.095-3.43 32.957 32.957 0 0 1-1.315-7.126 16.743 16.743 0 0 1 1.03-7.126l.19.061a18.428 18.428 0 0 0-.448 3.485 22.231 22.231 0 0 0 .235 3.479 34.793 34.793 0 0 0 1.807 6.744 78.496 78.496 0 0 0 1.267 3.288 16.531 16.531 0 0 1 1.164 3.587 5.283 5.283 0 0 1-.09 2.157 2.66 2.66 0 0 1-.705 1.203 4.642 4.642 0 0 1-.914.696 11.29 11.29 0 0 1-1.787.817c-.583.221-1.186.398-1.64.589a7.863 7.863 0 0 0-2.599 1.698 6.741 6.741 0 0 0-.955 1.2q-.199.327-.37.668a8.494 8.494 0 0 1-1.763 2.45 9.392 9.392 0 0 1-.75.657 3.117 3.117 0 0 1-.529.348 3.457 3.457 0 0 1-.556.232 12.924 12.924 0 0 1-3.845.392c-.61-.007-1.214-.03-1.807-.054l-.867-.028h-.352c.014-.002-.052.008.028-.01l.055-.019.129-.066a.797.797 0 0 0 .306-.34.88.88 0 0 0 .043-.675c-.143-.298-.153-.242-.17-.283a.565.565 0 0 0-.081-.075l-.03-.02.08.051 3.045 1.798c.516.309 1.027.615 1.551.967a3.772 3.772 0 0 1 1.377 1.644 7.804 7.804 0 0 1 .37 3.823c-.259 2.382-.59 4.728-.821 7.096a11.289 11.289 0 0 1-.69 3.589 3.13 3.13 0 0 1-1.365 1.377 4.859 4.859 0 0 1-1.83.492 6.644 6.644 0 0 1-1.873-.126c-.622-.137-1.161-.321-1.746-.469q-1.725-.46-3.444-.958c-2.29-.67-4.572-1.397-6.815-2.26a42.139 42.139 0 0 1-12.402-7.372 24.422 24.422 0 0 1-2.597-2.576 11.4 11.4 0 0 1-1.985-3.162 7.153 7.153 0 0 1-.489-3.712 5.178 5.178 0 0 1 1.653-3.245ZM322.971 212.159a3.84 3.84 0 0 0-1.557 2.41 7.327 7.327 0 0 0 .01 2.75c.07.481.171.975.266 1.486.057.27.09.503.136.663.043.17.114.282.084.272-.039-.025-.169-.008-.145.02a.826.826 0 0 0 .399-.212 8.195 8.195 0 0 1 .728-.518 1.486 1.486 0 0 1 1.303-.15l.219.101.045.085a2.465 2.465 0 0 1 .071 2.264 2.783 2.783 0 0 0-.917-1.627l.263.186c-.073.04-.058.077-.185.214l-.44.566a2.388 2.388 0 0 1-.884.714 1.613 1.613 0 0 1-1.644-.215 2.366 2.366 0 0 1-.735-1.073 6.2 6.2 0 0 1-.242-.886 12.776 12.776 0 0 1-.273-1.658 6.046 6.046 0 0 1 .619-3.53 3.327 3.327 0 0 1 2.88-1.862ZM316.73 222.114c.002-.14-.04-.128-.047-.049a1.337 1.337 0 0 0-.026.27c-.006.215.003.462.02.715.036.516.093 1.033.163 1.616.052.387.044.575.064.794a4.712 4.712 0 0 0 .097.601 2.194 2.194 0 0 0 .505.979 3.166 3.166 0 0 0 2.505.79 12.574 12.574 0 0 0 3.192-.597 13.077 13.077 0 0 1-3.01 1.581 6.066 6.066 0 0 1-1.814.342 5.102 5.102 0 0 1-1.009-.09 4.185 4.185 0 0 1-1.01-.387 4.395 4.395 0 0 1-1.6-1.51 7.01 7.01 0 0 1-.495-.935c-.133-.309-.246-.66-.326-.807a34.536 34.536 0 0 1-.669-1.575 11.675 11.675 0 0 1-.312-.899 5.087 5.087 0 0 1-.135-.546 3.074 3.074 0 0 1-.051-.872ZM280.64 250.068c1.94-2.898 3.96-5.568 6.087-8.22a91.396 91.396 0 0 1 3.31-3.874 44.942 44.942 0 0 1 3.636-3.668 26.84 26.84 0 0 1-2.392 4.61 42.982 42.982 0 0 1-3.001 4.19 39.643 39.643 0 0 1-3.503 3.796 21.006 21.006 0 0 1-4.136 3.166Z"></path>
  <path fill="#f2195c" d="M308.327 295.538a53.254 53.254 0 0 1 5.07-10.496 63.557 63.557 0 0 1 15.689-17.24 53.064 53.064 0 0 1 9.976-6.03c-3.108 2.326-6.12 4.704-8.988 7.238a105.618 105.618 0 0 0-15.387 16.9c-2.253 3.092-4.338 6.315-6.36 9.628Z"></path>
  <path fill="#f2195c" d="M259.805 257.974c3.28-2.86 6.638-5.62 9.955-8.432l2.512-2.078a8.543 8.543 0 0 1 2.966-1.84 4.55 4.55 0 0 1 3.66.629 7.31 7.31 0 0 1 2.431 2.636 27.735 27.735 0 0 1 1.426 3.038l1.286 2.978q1.312 2.965 2.735 5.878c1.932 3.857 3.742 7.846 6.358 11.082a35.475 35.475 0 0 0 4.53 4.434 38.771 38.771 0 0 1 4.682 4.738 37.283 37.283 0 0 1 3.742 5.527 26.55 26.55 0 0 1 2.59 6.193 11.59 11.59 0 0 1 .355 3.455 9.844 9.844 0 0 1-.849 3.37 32.886 32.886 0 0 1-1.525 2.952l-1.59 2.847c-2.168 3.77-4.275 7.572-6.497 11.314 1.82-3.953 3.755-7.846 5.629-11.77.924-1.954 2.01-3.9 2.767-5.832a8.964 8.964 0 0 0 .623-2.945 10.098 10.098 0 0 0-.421-2.992 27.543 27.543 0 0 0-2.606-5.728 35.458 35.458 0 0 0-3.67-5.176 39.046 39.046 0 0 0-4.515-4.48 36.908 36.908 0 0 1-4.797-4.649 35.534 35.534 0 0 1-3.6-5.645 132.718 132.718 0 0 1-2.911-5.884q-1.375-2.975-2.637-6a137.137 137.137 0 0 1-1.227-3.037 26.523 26.523 0 0 0-1.234-2.908 5.82 5.82 0 0 0-1.853-2.187 3.266 3.266 0 0 0-2.551-.575 7.498 7.498 0 0 0-2.59 1.476l-2.617 1.946c-3.52 2.553-7 5.16-10.557 7.665Z"></path>
  <path fill="#f2195c" d="M269.166 254.295a54.486 54.486 0 0 1 8.93 10.98c2.572 3.956 4.982 7.977 7.406 12.005 2.383 4.049 4.746 8.11 7.008 12.231 2.272 4.114 4.484 8.265 6.525 12.517-2.757-3.827-5.343-7.755-7.867-11.72-2.536-3.959-4.971-7.976-7.385-12.007a580.65 580.65 0 0 1-7.015-12.216 94.969 94.969 0 0 0-7.602-11.79ZM280.646 284.452c3.602 5.162 7.092 10.404 10.22 15.888a108.733 108.733 0 0 1 8.089 17.16 123.883 123.883 0 0 1 4.65 18.372c1.253 6.141 2.516 12.27 4.857 18.125-3.053-5.529-4.872-11.684-6.38-17.78-1.54-6.107-2.847-12.217-5.01-18.042a143.663 143.663 0 0 0-7.573-17.094c-2.87-5.561-5.91-11.063-8.853-16.629ZM377.656 324.863a19.488 19.488 0 0 1 1.871 2.775 37.968 37.968 0 0 1 1.475 2.882c.45.976.86 1.97 1.229 2.995a19.172 19.172 0 0 1 .885 3.228 12.298 12.298 0 0 1-2.28-2.502 18.234 18.234 0 0 1-1.65-2.886 18.46 18.46 0 0 1-1.113-3.133 12.427 12.427 0 0 1-.417-3.36ZM386.609 317.017a27.424 27.424 0 0 1 1.467 4.942 42.413 42.413 0 0 1 .747 5.063 41.92 41.92 0 0 1 .134 5.117 27.172 27.172 0 0 1-.602 5.12 42.436 42.436 0 0 1-.956-5.04 94.634 94.634 0 0 1-.866-10.074 43.046 43.046 0 0 1 .076-5.128ZM398.218 323.889a9.687 9.687 0 0 1 .541 2.881 14.325 14.325 0 0 1-.162 2.853 14.128 14.128 0 0 1-.719 2.764 9.584 9.584 0 0 1-1.402 2.576 13.909 13.909 0 0 1-.138-2.893 24.733 24.733 0 0 1 .284-2.758 25.379 25.379 0 0 1 .58-2.712 14.133 14.133 0 0 1 1.016-2.711ZM491.67 132.84a19.496 19.496 0 0 1 1.134 3.15c.29 1.049.527 2.098.723 3.155.198 1.057.352 2.121.458 3.204a19.175 19.175 0 0 1 .066 3.348 12.3 12.3 0 0 1-1.597-2.986 18.239 18.239 0 0 1-.893-3.202 18.473 18.473 0 0 1-.31-3.31 12.43 12.43 0 0 1 .42-3.359ZM502.274 127.429a27.426 27.426 0 0 1 .21 5.15 42.402 42.402 0 0 1-.516 5.092 41.924 41.924 0 0 1-1.125 4.993 27.174 27.174 0 0 1-1.839 4.817 42.416 42.416 0 0 1 .308-5.12c.186-1.682.406-3.351.682-5.011q.404-2.492.948-4.968a43.036 43.036 0 0 1 1.332-4.953ZM511.844 136.937a9.686 9.686 0 0 1-.182 2.926 14.32 14.32 0 0 1-.856 2.726 14.13 14.13 0 0 1-1.375 2.504 9.585 9.585 0 0 1-1.99 2.153 13.913 13.913 0 0 1 .575-2.839 24.74 24.74 0 0 1 .951-2.604 25.381 25.381 0 0 1 1.226-2.487 14.134 14.134 0 0 1 1.651-2.38ZM322.006 323.007a10.764 10.764 0 0 1 .08 2.817 16.974 16.974 0 0 1-.47 2.675 16.675 16.675 0 0 1-.887 2.566 10.63 10.63 0 0 1-1.44 2.424 10.63 10.63 0 0 1-.082-2.818 16.666 16.666 0 0 1 .473-2.674 16.968 16.968 0 0 1 .889-2.566 10.763 10.763 0 0 1 1.437-2.424ZM221.644 259.245a15.274 15.274 0 0 1 1.76-3.79 12.596 12.596 0 0 1 2.844-3.191 9.143 9.143 0 0 1 3.997-1.811 5.932 5.932 0 0 1 4.227.674 10.747 10.747 0 0 0-3.804.828 14.178 14.178 0 0 0-3.192 1.887 31.283 31.283 0 0 0-2.857 2.584 39.008 39.008 0 0 1-2.975 2.82ZM361.452 154.588a15.273 15.273 0 0 1 4.135.608 12.596 12.596 0 0 1 3.868 1.817 9.145 9.145 0 0 1 2.874 3.315 5.933 5.933 0 0 1 .558 4.244 10.75 10.75 0 0 0-1.877-3.41 14.177 14.177 0 0 0-2.718-2.523 31.31 31.31 0 0 0-3.29-2.003 38.98 38.98 0 0 1-3.55-2.048ZM373.632 154.284a15.273 15.273 0 0 1 3.456 2.35 12.596 12.596 0 0 1 2.69 3.322 9.144 9.144 0 0 1 1.141 4.236 5.933 5.933 0 0 1-1.349 4.063 10.748 10.748 0 0 0-.202-3.888 14.175 14.175 0 0 0-1.346-3.455 31.288 31.288 0 0 0-2.088-3.237 38.978 38.978 0 0 1-2.302-3.39ZM109.86 424.194a15.273 15.273 0 0 1-3.05-2.858 12.596 12.596 0 0 1-2.14-3.7 9.145 9.145 0 0 1-.47-4.362 5.933 5.933 0 0 1 1.963-3.804 10.748 10.748 0 0 0-.404 3.872 14.174 14.174 0 0 0 .793 3.622 31.286 31.286 0 0 0 1.56 3.522 38.994 38.994 0 0 1 1.747 3.708ZM99.682 417.495a15.274 15.274 0 0 1-1.498-3.902 12.595 12.595 0 0 1-.314-4.262 9.145 9.145 0 0 1 1.48-4.13 5.933 5.933 0 0 1 3.425-2.568 10.745 10.745 0 0 0-2.052 3.308 14.175 14.175 0 0 0-.865 3.606 31.291 31.291 0 0 0-.132 3.85 38.972 38.972 0 0 1-.044 4.098ZM592.781 269.062a15.27 15.27 0 0 1 3.784 1.773 12.597 12.597 0 0 1 3.18 2.855 9.145 9.145 0 0 1 1.797 4.003 5.933 5.933 0 0 1-.689 4.225 10.748 10.748 0 0 0-.814-3.807 14.175 14.175 0 0 0-1.876-3.198 31.302 31.302 0 0 0-2.573-2.867 38.992 38.992 0 0 1-2.809-2.984ZM604.532 272.281a15.272 15.272 0 0 1 2.632 3.247 12.596 12.596 0 0 1 1.618 3.955 9.145 9.145 0 0 1-.128 4.386 5.933 5.933 0 0 1-2.463 3.502 10.748 10.748 0 0 0 .927-3.781 14.175 14.175 0 0 0-.293-3.696 31.293 31.293 0 0 0-1.067-3.702 39 39 0 0 1-1.226-3.91Z"></path>
  <path fill="#f4648a" d="M298.872 111.748h-.064a643.694 643.694 0 0 0-13.96-.303 470.889 470.889 0 0 0-13.95 0l-13.96.22-6.97.175-6.98.275h-.055a.721.721 0 0 0-.698.753c.1 3.39.257 6.769.294 10.158.027 1.625.036 3.25.036 4.876q0 1.915-.027 3.83c0 .487-.01.964-.018 1.442a.449.449 0 0 0 .45.468l.018.01c4.675.082 9.386.358 14.143.505 3.573.165 7.145.21 10.7.183h.064c.129 0 .248 0 .377-.009.477 0 .945-.009 1.423-.018.129.009.248 0 .377 0 .43-.01.854-.01 1.285-.019 1.616-.018 3.224-.046 4.83-.082q4.63-.11 9.176-.276a548.75 548.75 0 0 0 13.537-.661l.092-1.543.202-3.37c.1-1.663.202-3.343.285-5.06.165-3.426.367-6.916.45-10.434a1.088 1.088 0 0 0-1.057-1.12Zm-.165 21.334c-4.904-.266-9.68-.496-14.373-.661a475.99 475.99 0 0 0-8.725-.267c-1.735-.036-3.462-.073-5.18-.1-.918-.019-1.827-.028-2.745-.037-3.665-.037-7.302.009-10.93.174-4.408.138-8.834.404-13.307.505 0 .156.01.322.01.478l-.47-.468c.157 0 .304-.01.46-.01-.009-.321-.009-.652-.009-.973a303.754 303.754 0 0 1 0-8.697c.046-3.132.174-6.255.275-9.377l-.725-.028.753-.753-.028.78 6.255.249 6.97.174 13.96.22c4.647.065 9.303.074 13.95 0a602.1 602.1 0 0 0 12.876-.275c-.018-.385-.036-.762-.045-1.148l1.13 1.12-1.085.028c.092 2.875.267 5.777.414 8.725l.496 8.991Z"></path>
  <path fill="#f4648a" d="M269.401 148.08c-.01.202-.028.394-.037.587l-.202 3.5c.092.009.184.009.276.009a201.274 201.274 0 0 1-.037-4.096Zm0 0c-.01.202-.028.394-.037.587l-.202 3.5c.092.009.184.009.276.009a201.274 201.274 0 0 1-.037-4.096Zm0 0c-.01.202-.028.394-.037.587l-.202 3.5c.092.009.184.009.276.009a201.274 201.274 0 0 1-.037-4.096Zm0 0c-.01.202-.028.394-.037.587l-.202 3.5c.092.009.184.009.276.009a201.274 201.274 0 0 1-.037-4.096Zm0 0c-.01.202-.028.394-.037.587l-.202 3.5c.092.009.184.009.276.009a201.274 201.274 0 0 1-.037-4.096Zm0 0c-.01.202-.028.394-.037.587l-.202 3.5c.092.009.184.009.276.009a201.274 201.274 0 0 1-.037-4.096Zm0 0c-.01.202-.028.394-.037.587l-.202 3.5c.092.009.184.009.276.009a201.274 201.274 0 0 1-.037-4.096Zm0 0c-.01.202-.028.394-.037.587l-.202 3.5c.092.009.184.009.276.009a201.274 201.274 0 0 1-.037-4.096Zm55.462-16.026h-.064a642.263 642.263 0 0 0-13.95-.304q-5.938-.082-11.857-.018h-.358c-.58.01-1.158.01-1.746.018l-13.95.22-6.98.175-.349.01-5.813.238h-.01l-.807.028h-.055a.74.74 0 0 0-.699.753c0 .128.01.257.019.386 0 .257.01.505.027.762v.01c.092 3.002.22 5.996.257 9 .019 1.432.037 2.856.037 4.288v.358c0 1.396-.009 2.792-.037 4.18 0 .403-.009.807-.018 1.212v.11a.313.313 0 0 0 .018.128.463.463 0 0 0 .432.35h.019c1.947.036 3.912.11 5.877.192.22 0 .45.019.68.028.505.018 1.01.036 1.524.064 2.012.083 4.032.165 6.062.23 4.766.21 9.524.22 14.235.137 4.711-.073 9.395-.193 14.006-.367 4.61-.165 9.137-.395 13.537-.661l.284-4.914c.102-1.662.212-3.343.285-5.06.166-3.417.367-6.906.46-10.433a1.102 1.102 0 0 0-1.066-1.12Zm-.735 11.002.579 10.332a760.683 760.683 0 0 0-14.373-.661 658.259 658.259 0 0 0-13.905-.368c-4.6-.082-9.137-.073-13.684.138-1.974.064-3.949.156-5.942.239-2.443.11-4.895.211-7.356.266 0 .156.01.322.01.478l-.35-.34-.128-.129h.137c.11-.009.22-.009.33-.009-.008-.275-.008-.55-.008-.826a201.566 201.566 0 0 1-.037-4.096v-.037c0-1.57.01-3.141.037-4.712.037-3.012.156-6.015.257-9.018.01-.12.01-.239.01-.358l-.726-.028.753-.753-.028.78.377.019 5.877.23.23.009 6.75.174 13.95.22c4.657.056 9.304.065 13.96-.009q6.434-.068 12.867-.266a49.739 49.739 0 0 1-.036-1.157l1.12 1.13-1.084.027c.092 2.875.266 5.768.413 8.725Zm-54.727 5.024c-.01.202-.028.394-.037.587l-.202 3.5c.092.009.184.009.276.009a201.279 201.279 0 0 1-.037-4.096Zm0 0c-.01.202-.028.394-.037.587l-.202 3.5c.092.009.184.009.276.009a201.279 201.279 0 0 1-.037-4.096Zm0 0c-.01.202-.028.394-.037.587l-.202 3.5c.092.009.184.009.276.009a201.279 201.279 0 0 1-.037-4.096Zm0 0c-.01.202-.028.394-.037.587l-.202 3.5c.092.009.184.009.276.009a201.279 201.279 0 0 1-.037-4.096Zm0 0c-.01.202-.028.394-.037.587l-.202 3.5c.092.009.184.009.276.009a201.279 201.279 0 0 1-.037-4.096Zm0 0c-.01.202-.028.394-.037.587l-.202 3.5c.092.009.184.009.276.009a201.279 201.279 0 0 1-.037-4.096Zm0 0c-.01.202-.028.394-.037.587l-.202 3.5c.092.009.184.009.276.009a201.279 201.279 0 0 1-.037-4.096Z"></path>
  <path fill="#f4648a" d="M276.803 152.736a1.064 1.064 0 0 0-.78-.377h-.055q-3.265-.096-6.53-.183c-.092 0-.184 0-.276-.01-.11.01-.23 0-.34 0-.1 0-.192 0-.294-.009a515.762 515.762 0 0 0-6.52-.1q-6.971-.097-13.95 0l-13.96.22-2.718.073c-.23.01-.46.01-.68.018l-3.582.092-6.97.267-.056.009a.593.593 0 0 0-.22.046.714.714 0 0 0-.487.698l.028.688c.1 3.16.23 6.32.275 9.47.028 1.57.037 3.14.037 4.71 0 1.82-.019 3.628-.055 5.447a.474.474 0 0 0 .46.468h.018c4.674.092 9.385.367 14.143.514 4.757.212 9.523.22 14.226.138 4.71-.073 9.404-.184 14.005-.367 4.61-.166 9.138-.395 13.538-.661l.284-4.914c.11-1.653.211-3.343.285-5.06.156-3.169.349-6.401.431-9.671.019-.248.019-.505.028-.762a1.074 1.074 0 0 0-.285-.744Zm-.835 1.873-1.093.028c.092 2.874.275 5.767.422 8.725l.57 10.332c-4.905-.267-9.68-.496-14.374-.662a601.223 601.223 0 0 0-13.904-.358c-4.601-.092-9.138-.082-13.675.129-4.408.147-8.844.404-13.307.505 0 .165.009.321.009.487l-.468-.478c.156 0 .302-.009.459-.009q-.097-4.836-.01-9.67c.047-3.114.175-6.246.276-9.368l-.725-.028.045-.046.707-.716-.027.744v.046l6.245.238 6.98.184 13.96.22q6.97.097 13.95-.009 6.434-.055 12.867-.266c-.01-.165-.01-.321-.019-.487-.009-.22-.009-.45-.018-.67l.698.698Z"></path>
  <path fill="#f4648a" d="M268.528 143.331c-.036-3.003-.165-5.997-.257-9-.128.01-.248.01-.376.01.092 2.865.276 5.767.413 8.715l.257 4.564c0-1.432-.018-2.856-.037-4.289Zm0 0c-.036-3.003-.165-5.997-.257-9-.128.01-.248.01-.376.01.092 2.865.276 5.767.413 8.715l.257 4.564c0-1.432-.018-2.856-.037-4.289Zm0 0c-.036-3.003-.165-5.997-.257-9-.128.01-.248.01-.376.01.092 2.865.276 5.767.413 8.715l.257 4.564c0-1.432-.018-2.856-.037-4.289Zm0 0c-.036-3.003-.165-5.997-.257-9-.128.01-.248.01-.376.01.092 2.865.276 5.767.413 8.715l.257 4.564c0-1.432-.018-2.856-.037-4.289Zm0 0c-.036-3.003-.165-5.997-.257-9-.128.01-.248.01-.376.01.092 2.865.276 5.767.413 8.715l.257 4.564c0-1.432-.018-2.856-.037-4.289Zm0 0c-.036-3.003-.165-5.997-.257-9-.128.01-.248.01-.376.01.092 2.865.276 5.767.413 8.715l.257 4.564c0-1.432-.018-2.856-.037-4.289Zm0 0c-.036-3.003-.165-5.997-.257-9-.128.01-.248.01-.376.01.092 2.865.276 5.767.413 8.715l.257 4.564c0-1.432-.018-2.856-.037-4.289Zm0 0c-.036-3.003-.165-5.997-.257-9-.128.01-.248.01-.376.01.092 2.865.276 5.767.413 8.715l.257 4.564c0-1.432-.018-2.856-.037-4.289Zm1.268-10.938h-.01a1.05 1.05 0 0 0-.743-.34h-.064c-.432-.009-.864-.027-1.295-.036q-6.323-.193-12.656-.267-5.8-.082-11.59-.027c-.294.009-.597.009-.9.009-.487.01-.983.01-1.47.018l-13.95.22-6.98.175-6.98.276h-.055a.74.74 0 0 0-.698.753c.11 3.389.257 6.768.304 10.157.018 1.553.036 3.095.036 4.647q0 2.756-.055 5.502a.468.468 0 0 0 .45.477h.018c2.076.037 4.16.12 6.255.211.257 0 .523.019.78.028l.68.028c2.14.091 4.28.183 6.429.248 4.766.21 9.523.22 14.235.137 4.711-.073 9.404-.193 14.006-.367 4.417-.156 8.76-.377 12.986-.634l.55-.027.028-.441.01-.129.045-.845.202-3.499c.01-.193.028-.385.037-.587v-.037c.092-1.46.184-2.93.248-4.436.147-3.05.322-6.153.423-9.294.009-.11.009-.22.009-.34l.027-.799a1.052 1.052 0 0 0-.312-.78Zm-.91 20.995c-.128-.01-.247-.01-.376-.018a794.482 794.482 0 0 0-13.996-.643 658.257 658.257 0 0 0-13.905-.368 238.135 238.135 0 0 0-9.23-.009c-.229.01-.459.01-.68.018-1.258.028-2.515.065-3.774.129-2.342.073-4.693.184-7.053.285-2.076.092-4.151.174-6.245.22 0 .156.009.321.009.478l-.478-.469c.156 0 .313-.009.469-.009q-.097-4.835-.01-9.67c.037-3.132.166-6.255.267-9.377l-.726-.028.754-.753-.028.78 6.254.249 6.98.183 13.95.22c4.657.056 9.304.065 13.96-.009 4.261-.045 8.541-.137 12.803-.257a.155.155 0 0 0 .064-.009c-.019-.386-.027-.771-.037-1.157l.386.386.735.744c-.24.009-.469.018-.707.018-.13.01-.248.01-.377.01v.008c.092 2.866.276 5.768.413 8.716l.257 4.564.258 4.546Zm-.358-10.057c-.036-3.003-.165-5.997-.257-9-.128.01-.248.01-.376.01.092 2.865.276 5.767.413 8.715l.257 4.564c0-1.432-.018-2.856-.037-4.289Zm0 0c-.036-3.003-.165-5.997-.257-9-.128.01-.248.01-.376.01.092 2.865.276 5.767.413 8.715l.257 4.564c0-1.432-.018-2.856-.037-4.289Zm0 0c-.036-3.003-.165-5.997-.257-9-.128.01-.248.01-.376.01.092 2.865.276 5.767.413 8.715l.257 4.564c0-1.432-.018-2.856-.037-4.289Zm0 0c-.036-3.003-.165-5.997-.257-9-.128.01-.248.01-.376.01.092 2.865.276 5.767.413 8.715l.257 4.564c0-1.432-.018-2.856-.037-4.289Zm0 0c-.036-3.003-.165-5.997-.257-9-.128.01-.248.01-.376.01.092 2.865.276 5.767.413 8.715l.257 4.564c0-1.432-.018-2.856-.037-4.289Zm0 0c-.036-3.003-.165-5.997-.257-9-.128.01-.248.01-.376.01.092 2.865.276 5.767.413 8.715l.257 4.564c0-1.432-.018-2.856-.037-4.289Zm0 0c-.036-3.003-.165-5.997-.257-9-.128.01-.248.01-.376.01.092 2.865.276 5.767.413 8.715l.257 4.564c0-1.432-.018-2.856-.037-4.289ZM122.228 337.508h-.065a643.149 643.149 0 0 0-13.95-.303 296.481 296.481 0 0 0-4.95-.046c-.018.018-.037.028-.055.046q-1.64 1.405-3.224 2.893c2.746.01 5.483 0 8.229-.046q6.434-.069 12.867-.275a46.987 46.987 0 0 1-.037-1.148l1.12 1.12-1.083.028c.092 2.874.266 5.776.413 8.724l.496 8.991.073 1.35c-4.904-.266-9.68-.496-14.363-.66-2.939-.12-5.85-.203-8.734-.267-1.736-.037-3.453-.074-5.17-.101-.919-.019-1.837-.028-2.747-.037a213.611 213.611 0 0 0-6.429.028 58.8 58.8 0 0 0-1.515 2.213c2.71.083 5.41.1 8.091.083h.055c.13 0 .257 0 .377-.01.477 0 .955-.009 1.432-.018.13.01.248 0 .368 0 .432-.01.863-.01 1.295-.018 1.616-.019 3.224-.055 4.83-.083q4.63-.11 9.175-.276a598.99 598.99 0 0 0 13.538-.66l.091-1.553.194-3.361c.1-1.662.21-3.352.284-5.06.165-3.426.368-6.916.46-10.434a1.102 1.102 0 0 0-1.066-1.12Z"></path>
  <path fill="#f4648a" d="M92.757 373.84c-.01.202-.028.395-.037.588l-.202 3.499c.092.009.184.009.275.009a204.973 204.973 0 0 1-.036-4.096Zm0 0c-.01.202-.028.395-.037.588l-.202 3.499c.092.009.184.009.275.009a204.973 204.973 0 0 1-.036-4.096Zm0 0c-.01.202-.028.395-.037.588l-.202 3.499c.092.009.184.009.275.009a204.973 204.973 0 0 1-.036-4.096Zm0 0c-.01.202-.028.395-.037.588l-.202 3.499c.092.009.184.009.275.009a204.973 204.973 0 0 1-.036-4.096Zm0 0c-.01.202-.028.395-.037.588l-.202 3.499c.092.009.184.009.275.009a204.973 204.973 0 0 1-.036-4.096Zm0 0c-.01.202-.028.395-.037.588l-.202 3.499c.092.009.184.009.275.009a204.973 204.973 0 0 1-.036-4.096Zm0 0c-.01.202-.028.395-.037.588l-.202 3.499c.092.009.184.009.275.009a204.973 204.973 0 0 1-.036-4.096Zm0 0c-.01.202-.028.395-.037.588l-.202 3.499c.092.009.184.009.275.009a204.973 204.973 0 0 1-.036-4.096Zm55.461-16.026h-.064a642.767 642.767 0 0 0-13.95-.303c-3.95-.064-7.898-.064-11.848-.028-.119 0-.247 0-.367.01-.579 0-1.166.009-1.745.018l-13.95.22-6.98.175-.349.009-5.814.239h-.008l-.8.027h-.055a.741.741 0 0 0-.707.753c0 .129.009.248.009.377.01.257.019.514.037.771v.01c.092 3.003.22 5.996.257 9 .027 1.396.037 2.792.037 4.188v.523c0 1.369-.01 2.746-.037 4.115 0 .404-.01.808-.018 1.212v.11a.533.533 0 0 0 .018.129.483.483 0 0 0 .44.349h.02c1.947.036 3.912.11 5.868.192.23 0 .46.019.68.028.514.018 1.019.037 1.524.064 2.011.083 4.032.166 6.062.23 4.766.211 9.532.22 14.235.128 4.711-.064 9.404-.183 14.005-.358 4.61-.165 9.138-.395 13.537-.661l.285-4.913c.11-1.663.211-3.343.285-5.06.165-3.417.376-6.907.459-10.434a1.102 1.102 0 0 0-1.066-1.12Zm-.725 11.002.57 10.332a755.98 755.98 0 0 0-14.373-.661 656.937 656.937 0 0 0-13.905-.367c-4.601-.083-9.138-.074-13.675.137-1.975.065-3.949.147-5.942.24-2.443.11-4.904.21-7.365.265 0 .157.009.322.009.478l-.469-.468h.13c.109-.01.22-.01.33-.01-.01-.275-.01-.55-.01-.826a204.973 204.973 0 0 1-.036-4.096v-.037c0-1.57.009-3.14.036-4.711.037-3.013.166-6.016.267-9.019 0-.12.009-.239.009-.358l-.726-.028.753-.753-.027.78.367.02 5.878.229.239.01 6.74.174 13.951.21c4.657.065 9.303.074 13.96 0q6.433-.068 12.867-.265c-.019-.386-.028-.772-.037-1.158l1.12 1.13-1.083.028c.091 2.874.275 5.767.422 8.724Zm-54.736 5.024c-.01.202-.028.395-.037.588l-.202 3.499c.092.009.184.009.275.009a204.978 204.978 0 0 1-.036-4.096Zm0 0c-.01.202-.028.395-.037.588l-.202 3.499c.092.009.184.009.275.009a204.978 204.978 0 0 1-.036-4.096Zm0 0c-.01.202-.028.395-.037.588l-.202 3.499c.092.009.184.009.275.009a204.978 204.978 0 0 1-.036-4.096Zm0 0c-.01.202-.028.395-.037.588l-.202 3.499c.092.009.184.009.275.009a204.978 204.978 0 0 1-.036-4.096Zm0 0c-.01.202-.028.395-.037.588l-.202 3.499c.092.009.184.009.275.009a204.978 204.978 0 0 1-.036-4.096Zm0 0c-.01.202-.028.395-.037.588l-.202 3.499c.092.009.184.009.275.009a204.978 204.978 0 0 1-.036-4.096Zm0 0c-.01.202-.028.395-.037.588l-.202 3.499c.092.009.184.009.275.009a204.978 204.978 0 0 1-.036-4.096Z"></path>
  <path fill="#f4648a" d="M98.212 379.91a252.837 252.837 0 0 0-5.869-.192h-.018a.483.483 0 0 1-.44-.35 511.19 511.19 0 0 1-12.987.634 500.41 500.41 0 0 1-6.54.212q-.109.234-.192.468 6.599.082 13.197-.018 6.434-.056 12.867-.267c-.009-.165-.009-.321-.018-.487Zm1.956-1.414a1.064 1.064 0 0 0-.78-.376h-.065q-3.265-.097-6.53-.184c-.091 0-.183 0-.275-.01-.11.01-.23 0-.34 0-.101 0-.193 0-.294-.008a512.94 512.94 0 0 0-6.52-.102q-5.993-.082-11.985-.018c-.083.184-.157.358-.23.533a47.507 47.507 0 0 0-.79 1.883q-.11.234-.193.468 6.599.082 13.197-.018 6.434-.056 12.867-.267c-.01-.165-.01-.321-.018-.487-.01-.22-.01-.45-.018-.67l1.13 1.13-1.094.027c.101 2.875.276 5.768.423 8.725l.569 10.332c-4.904-.266-9.68-.496-14.373-.661a598.84 598.84 0 0 0-13.904-.358q-2.177-.042-4.354-.056c-.174.781-.34 1.562-.505 2.342q2.907.014 5.786-.046a629.23 629.23 0 0 0 14.006-.367c4.62-.165 9.147-.395 13.537-.661l.294-4.914c.1-1.653.202-3.343.285-5.06.156-3.168.34-6.401.422-9.67.018-.249.018-.506.027-.763a1.026 1.026 0 0 0-.275-.744Z"></path>
  <path fill="#f4648a" d="M91.884 369.092c-.037-3.003-.165-5.997-.257-9-.12.009-.248.009-.376.009.091 2.865.275 5.767.422 8.715l.248 4.464c0-1.396-.01-2.792-.037-4.188Zm1.267-10.938h-.008a1.05 1.05 0 0 0-.745-.34h-.055c-.432-.01-.863-.028-1.295-.037-2.103-.064-4.197-.12-6.3-.165a2.293 2.293 0 0 0-.128.193 58.8 58.8 0 0 0-1.516 2.213c-.073.092-.129.184-.193.275 2.765-.045 5.52-.119 8.284-.192a.117.117 0 0 0 .056-.01 47.27 47.27 0 0 1-.037-1.157l1.13 1.13c-.24.009-.478.018-.717.018-.128.01-.248.01-.376.01v.009c.091 2.865.275 5.767.422 8.715l.248 4.464.257 4.647.065 1.221c-.13-.009-.248-.009-.377-.018a794.32 794.32 0 0 0-13.997-.643c-1.58-.055-3.159-.11-4.72-.156a47.507 47.507 0 0 0-.79 1.883 499.72 499.72 0 0 0 6.539-.212 511.19 511.19 0 0 0 12.986-.633l.551-.028.028-.45.01-.12.045-.844.202-3.5c.01-.192.027-.385.037-.587v-.037c.1-1.46.183-2.93.247-4.436.147-3.049.331-6.153.423-9.294.01-.11.01-.22.01-.34.018-.266.018-.532.027-.799a1.05 1.05 0 0 0-.313-.78ZM580.885 212.11l6.245.248 6.98.175 13.959.22q6.97.097 13.95 0c2.131-.028 4.253-.055 6.383-.101.01-.882.019-1.763.01-2.645q-3.197-.069-6.393-.101a442.999 442.999 0 0 0-11.58-.018q-.07-4.367 0-8.716c.036-3.122.165-6.245.266-9.368l6.254.24 6.98.183 3.49.055c-.092-.845-.184-1.69-.294-2.526l-3.196.055-6.98.184-6.98.266-.055.01a.728.728 0 0 0-.698.753c.11 3.38.257 6.768.303 10.148a308.77 308.77 0 0 1 0 8.716c-.487.009-.973.009-1.46.009l-13.96.22-6.98.184-6.97.276h-.055a.722.722 0 0 0-.698.753c.101 3.38.257 6.768.294 10.148.055 3.389.055 6.768-.018 10.157a.462.462 0 0 0 .459.469h.018q3.113.069 6.245.211c.11 3.16.239 6.319.275 9.478.056 3.38.056 6.768-.009 10.148v.018a.45.45 0 0 0 .45.45l.019.01c4.675.082 9.386.358 14.143.505 4.757.22 9.524.22 14.235.137 3.05-.045 6.09-.11 9.092-.192.083-.607.175-1.203.267-1.81-3.463-.11-6.888-.183-10.295-.238-4.592-.083-9.13-.074-13.675.137-4.4.147-8.836.404-13.299.505q-.096-4.835-.01-9.67c.038-3.132.166-6.255.267-9.377l6.254.248 6.971.174 13.96.22c4.032.056 8.073.074 12.104.02.11-.965.202-1.92.285-2.885a464.69 464.69 0 0 0-12.39.019l-13.959.22-6.97.175-6.98.275h-.055a.648.648 0 0 0-.22.055c-2.076.092-4.152.166-6.246.211q-.082-4.835-.01-9.67c.047-3.123.175-6.245.277-9.368ZM469.547 284.507h-.064a589.506 589.506 0 0 0-13.96-.293q-5.924-.097-11.847-.019l.193-3.38c.11-1.662.21-3.343.284-5.06.166-3.416.377-6.906.46-10.433a1.102 1.102 0 0 0-1.065-1.12h-.065a642.767 642.767 0 0 0-13.95-.303q-6.985-.097-13.96 0l-13.95.22-6.98.174-6.98.276h-.046a.741.741 0 0 0-.707.753c.11 3.389.257 6.769.303 10.158a305.37 305.37 0 0 1 0 8.715c-.487.01-.974 0-1.46.01l-13.96.22-6.97.183-6.98.267-.056.009a.722.722 0 0 0-.697.753c.1 3.38.257 6.769.293 10.148a288.54 288.54 0 0 1-.009 10.158v.018a.463.463 0 0 0 .45.45h.019c2.075.037 67.934.45 69.963.514 4.758.212 9.524.22 14.226.138 4.72-.073 9.404-.184 14.005-.367a547.81 547.81 0 0 0 13.538-.661l.285-4.914c.11-1.653.21-3.343.293-5.06.166-3.417.368-6.907.45-10.424a1.096 1.096 0 0 0-1.056-1.13Zm-81.425-9.027c.037-3.123.165-6.246.276-9.377l6.245.248 6.98.183 13.95.22c4.656.056 9.304.065 13.96-.008a602.14 602.14 0 0 0 12.876-.267c.1 2.875.266 5.768.413 8.725l.496 8.991c-.588.01-1.166 0-1.745.01l-13.96.22-6.97.183-.322.01c-1.736-.037-3.48-.083-5.207-.11l-2.572-.028c-4.28-.129-8.559-.23-12.839-.266-3.857-.065-7.714-.056-11.58-.028a304.803 304.803 0 0 1 0-8.706Zm25.082 29.14a513.048 513.048 0 0 0-6.512-.1 505.546 505.546 0 0 0-13.96-.01l-13.95.22-6.98.184-6.98.276h-.055a.646.646 0 0 0-.22.055c-2.066.082-4.151.165-6.236.211a281.51 281.51 0 0 1-.018-9.67c.046-3.123.174-6.246.275-9.368l6.254.238 6.97.184 13.96.22q6.972.097 13.951-.009 6.213-.055 12.417-.257h.468c.092 2.875.257 5.768.405 8.716l.248 4.417c0 1.562-.01 3.132-.037 4.693Zm41.805.56a600.06 600.06 0 0 0-13.904-.358c-4.592-.092-9.139-.082-13.675.138-1.975.055-6.41-.129-6.723-.138l-.065-.009q-3.264-.096-6.52-.174a209.191 209.191 0 0 1-.037-4.18c.083-1.45.175-2.91.248-4.398.147-3.05.313-6.163.413-9.294.432 0 .864-.01 1.296-.01 1.552-.027 3.095-.064 4.637-.1l6.934.183 13.96.22q6.97.097 13.95-.009c4.298-.036 8.587-.137 12.876-.266.101 2.875.266 5.767.414 8.725l.57 10.332c-4.905-.267-9.68-.496-14.374-.662ZM616.206 456.055c0 .165.01.321.01.486l-.469-.477c.156 0 .303-.01.46-.01-.01-.33-.01-.651-.01-.973-.046-2.902-.037-5.795.01-8.697.036-3.113.164-6.245.266-9.368l-.726-.027.753-.762-.027.79 6.253.238 6.971.184 6.457.1q0-1.308-.056-2.617l-6.4.101-6.971.184-6.98.266-.055.01a.72.72 0 0 0-.698.744c.101 3.388.257 6.777.294 10.157a290.872 290.872 0 0 1 .009 8.706c0 .478-.01.965-.019 1.451a.46.46 0 0 0 .45.469h.02c4.674.092 9.385.367 14.142.514q2.094.097 4.188.138a63.53 63.53 0 0 0 .46-2.269c-1.681.028-3.353.083-5.024.157-4.409.147-8.836.404-13.308.505ZM620.816 475.424l-13.96.21-5.06.139-1.92.046-6.97.275h-.055a.546.546 0 0 0-.248.055.713.713 0 0 0-.45.698c.01.23.01.45.018.68.102 3.15.23 6.318.276 9.478.028 1.57.037 3.14.037 4.711 0 1.81-.018 3.628-.055 5.437a.462.462 0 0 0 .459.468h.018c4.63.092 9.304.359 14.015.505a37.847 37.847 0 0 0 3.48-2.084c-1.24.027-2.488.064-3.728.128-4.408.138-8.835.404-13.307.505 0 .157.008.322.008.478l-.468-.469c.156 0 .304-.009.46-.009a282.673 282.673 0 0 1-.01-9.67c.046-3.132.175-6.255.276-9.377l-.726-.028.046-.046h.01l.697-.707-.027.735v.046l6.245.248 6.98.174 13.96.22c1.855.028 3.71.047 5.574.047.138-.22.257-.441.377-.662.284-.514.56-1.028.826-1.552.12-.239.248-.487.368-.735q-3.582 0-7.146.056Z"></path>
  <path fill="#f4648a" d="M627.787 455.118q-5.8-.096-11.59-.037c-.303.01-.606.01-.9.01-.487.009-.983.009-1.47.018l-13.95.22-6.98.184-6.98.275h-.046a.73.73 0 0 0-.707.753c.11 3.38.258 6.77.303 10.149.019 1.625.037 3.25.037 4.886 0 1.754-.018 3.508-.055 5.271a.461.461 0 0 0 .45.469h.018c2.076.036 4.16.119 6.254.21.258 0 .524.02.781.028h.01l.67.028c2.14.092 4.28.184 6.429.248 4.766.22 9.524.22 14.235.138 4.188-.065 8.366-.156 12.472-.312.284-.515.56-1.03.826-1.553-.11 0-.211-.009-.321-.009a553.4 553.4 0 0 0-13.905-.367c-3.885-.074-7.733-.083-11.572.046-.698.027-1.405.055-2.112.092-2.351.073-4.711.183-7.08.284-2.067.092-4.134.175-6.218.22 0 .157.01.322.01.478l-.479-.468c.157 0 .313-.01.469-.01a263.064 263.064 0 0 1-.01-9.68c.046-3.122.175-6.244.267-9.367l-.726-.027.753-.754-.027.781 6.254.239 6.98.184 13.95.22q6.985.097 13.96 0 3.113-.028 6.245-.101a1.334 1.334 0 0 0 .046-.202 63.53 63.53 0 0 0 .46-2.269 1.098 1.098 0 0 0 .036-.165c-2.268-.046-4.528-.092-6.787-.11ZM530.024 106.045a391.533 391.533 0 0 1-.037-4.657c0-1.35.01-2.7.028-4.059l.027-1.442a.45.45 0 0 0-.45-.468h-.018c-4.675-.092-9.395-.368-14.144-.515a203.056 203.056 0 0 0-10.295-.183h-.468c-.129 0-.258 0-.377.009-.478 0-.955.009-1.423.018-.129-.009-.258 0-.377 0-.431.01-.863.01-1.295.019-1.534.027-3.067.055-4.592.091h-.055q-4.711.097-9.359.276c-4.61.165-9.137.395-13.537.652l-.091 1.552-.193 3.37c-.101 1.654-.212 3.344-.285 5.06-.165 3.417-.367 6.907-.46 10.425a1.117 1.117 0 0 0 1.066 1.13h.064c4.648.137 9.304.247 13.95.293q6.986.11 13.96.01l13.95-.22 6.98-.185 6.98-.275h.056a.728.728 0 0 0 .698-.753c-.11-3.38-.257-6.769-.303-10.148Zm-1.204 10.148.028-.78-6.254-.24-6.98-.183-13.95-.22q-6.985-.097-13.96 0-6.433.068-12.867.275c.019.385.028.771.037 1.148l-1.12-1.12 1.083-.028c-.092-2.866-.266-5.768-.413-8.725l-.496-8.991-.073-1.34c4.904.265 9.68.486 14.363.651a557.477 557.477 0 0 0 13.905.367c.734.01 1.47.028 2.204.028 3.848.046 7.66.018 11.48-.165 4.399-.138 8.835-.404 13.308-.505 0-.156-.01-.322-.01-.478l.469.468c-.156 0-.303.01-.46.01.01.33.01.652.01.973a274.9 274.9 0 0 1-.01 8.707c-.036 3.122-.165 6.245-.266 9.367l.726.028Z"></path>
  <path fill="#f4648a" d="M504.033 85.73c-.018-1.24-.028-2.49-.037-3.73l-.835-.082c0 1.268-.019 2.544-.037 3.812-.037 3.012-.165 6.015-.257 9.018.468-.009.945-.018 1.423-.018-.1-2.994-.22-5.997-.257-9Zm0 0c-.018-1.24-.028-2.49-.037-3.73l-.835-.082c0 1.268-.019 2.544-.037 3.812-.037 3.012-.165 6.015-.257 9.018.468-.009.945-.018 1.423-.018-.1-2.994-.22-5.997-.257-9Zm0 0c-.018-1.24-.028-2.49-.037-3.73l-.835-.082c0 1.268-.019 2.544-.037 3.812-.037 3.012-.165 6.015-.257 9.018.468-.009.945-.018 1.423-.018-.1-2.994-.22-5.997-.257-9Zm0 0c-.018-1.24-.028-2.49-.037-3.73l-.835-.082c0 1.268-.019 2.544-.037 3.812-.037 3.012-.165 6.015-.257 9.018.468-.009.945-.018 1.423-.018-.1-2.994-.22-5.997-.257-9Zm0 0c-.018-1.24-.028-2.49-.037-3.73l-.835-.082c0 1.268-.019 2.544-.037 3.812-.037 3.012-.165 6.015-.257 9.018.468-.009.945-.018 1.423-.018-.1-2.994-.22-5.997-.257-9Zm0 0c-.018-1.24-.028-2.49-.037-3.73l-.835-.082c0 1.268-.019 2.544-.037 3.812-.037 3.012-.165 6.015-.257 9.018.468-.009.945-.018 1.423-.018-.1-2.994-.22-5.997-.257-9Zm0 0c-.018-1.24-.028-2.49-.037-3.73l-.835-.082c0 1.268-.019 2.544-.037 3.812-.037 3.012-.165 6.015-.257 9.018.468-.009.945-.018 1.423-.018-.1-2.994-.22-5.997-.257-9Zm.294 9.78a20.552 20.552 0 0 0-.037-.762c.01-.009.01-.009 0-.018-.1-2.994-.22-5.997-.257-9-.018-1.24-.028-2.49-.037-3.73l-.835-.082c0 1.268-.019 2.544-.037 3.812-.037 3.012-.165 6.015-.257 9.018-.01.12-.019.239-.019.358l.726.028-.753.753.027-.78-.367-.019-5.878-.23h-.055l-6.925-.174-13.95-.22a472.18 472.18 0 0 0-13.96 0q-6.433.068-12.867.275c.02.386.028.762.037 1.148l-1.12-1.12 1.083-.028c-.091-2.875-.275-5.777-.422-8.725l-.57-10.34c1.461.082 2.903.155 4.335.229-.835-.175-1.67-.35-2.507-.542-.68.037-1.35.082-2.02.12l-.285 4.913c-.11 1.662-.211 3.352-.284 5.06-.166 3.426-.377 6.916-.46 10.433a1.096 1.096 0 0 0 1.065 1.12l.065.01c4.647.137 9.303.248 13.95.294 3.95.064 7.899.064 11.848.027.119 0 .248 0 .367-.009.579 0 1.166-.01 1.745-.018l13.95-.212 6.98-.183.202-.01 5.96-.238.809-.028h.055a.735.735 0 0 0 .707-.753c0-.129-.01-.248-.01-.376Zm-.294-9.78c-.018-1.24-.028-2.49-.037-3.73l-.835-.082c0 1.268-.019 2.544-.037 3.812-.037 3.012-.165 6.015-.257 9.018.468-.009.945-.018 1.423-.018-.1-2.994-.22-5.997-.257-9Zm0 0c-.018-1.24-.028-2.49-.037-3.73l-.835-.082c0 1.268-.019 2.544-.037 3.812-.037 3.012-.165 6.015-.257 9.018.468-.009.945-.018 1.423-.018-.1-2.994-.22-5.997-.257-9Zm0 0c-.018-1.24-.028-2.49-.037-3.73l-.835-.082c0 1.268-.019 2.544-.037 3.812-.037 3.012-.165 6.015-.257 9.018.468-.009.945-.018 1.423-.018-.1-2.994-.22-5.997-.257-9Zm0 0c-.018-1.24-.028-2.49-.037-3.73l-.835-.082c0 1.268-.019 2.544-.037 3.812-.037 3.012-.165 6.015-.257 9.018.468-.009.945-.018 1.423-.018-.1-2.994-.22-5.997-.257-9Zm0 0c-.018-1.24-.028-2.49-.037-3.73l-.835-.082c0 1.268-.019 2.544-.037 3.812-.037 3.012-.165 6.015-.257 9.018.468-.009.945-.018 1.423-.018-.1-2.994-.22-5.997-.257-9Zm0 0c-.018-1.24-.028-2.49-.037-3.73l-.835-.082c0 1.268-.019 2.544-.037 3.812-.037 3.012-.165 6.015-.257 9.018.468-.009.945-.018 1.423-.018-.1-2.994-.22-5.997-.257-9Z"></path>
  <path fill="#f4648a" d="m504.244 86.014-.22-4.013-.028-.45V82c.01 1.24.019 2.489.037 3.729.037 3.003.156 6.006.257 9 .12-.01.248-.01.377-.01-.092-2.865-.276-5.758-.423-8.706Zm0 0-.22-4.013-.028-.45V82c.01 1.24.019 2.489.037 3.729.037 3.003.156 6.006.257 9 .12-.01.248-.01.377-.01-.092-2.865-.276-5.758-.423-8.706Zm0 0-.22-4.013-.028-.45V82c.01 1.24.019 2.489.037 3.729.037 3.003.156 6.006.257 9 .12-.01.248-.01.377-.01-.092-2.865-.276-5.758-.423-8.706Zm0 0-.22-4.013-.028-.45V82c.01 1.24.019 2.489.037 3.729.037 3.003.156 6.006.257 9 .12-.01.248-.01.377-.01-.092-2.865-.276-5.758-.423-8.706Zm0 0-.22-4.013-.028-.45V82c.01 1.24.019 2.489.037 3.729.037 3.003.156 6.006.257 9 .12-.01.248-.01.377-.01-.092-2.865-.276-5.758-.423-8.706Zm0 0-.22-4.013-.028-.45V82c.01 1.24.019 2.489.037 3.729.037 3.003.156 6.006.257 9 .12-.01.248-.01.377-.01-.092-2.865-.276-5.758-.423-8.706Zm55.802 6.677c-.423-.174-.845-.33-1.276-.487-.037.965-.074 1.938-.102 2.902l.726.028-.753.753.027-.78-6.245-.248-6.98-.175-13.959-.22a471.57 471.57 0 0 0-13.95 0q-6.2.055-12.399.257c-.156 0-.312.009-.468.018.018.386.027.762.037 1.148l-.377-.376-.753-.744c.238-.01.478-.019.716-.019.129-.009.248-.009.377-.009v-.018c-.092-2.866-.276-5.759-.423-8.707l-.22-4.013-.028-.45V82l-.835-.083v-.9c-.028.294-.046.597-.056.9a216.312 216.312 0 0 0-.193 3.536c-.146 3.058-.33 6.163-.422 9.294-.009.11-.009.23-.009.34-.018.266-.018.533-.028.799a1.088 1.088 0 0 0 .313.78 1.052 1.052 0 0 0 .753.34l.055.01c.248.009.505.018.753.018 4.408.129 8.798.23 13.206.276 3.858.064 7.724.064 11.59.027.295 0 .597 0 .892-.009.486 0 .982-.01 1.47-.018l13.958-.212 6.98-.183 6.97-.276h.056a.735.735 0 0 0 .707-.753l-.11-3.196Zm-55.802-6.677-.22-4.013-.028-.45V82c.01 1.24.019 2.489.037 3.729.037 3.003.156 6.006.257 9 .12-.01.248-.01.377-.01-.092-2.865-.276-5.758-.423-8.706Zm0 0-.22-4.013-.028-.45V82c.01 1.24.019 2.489.037 3.729.037 3.003.156 6.006.257 9 .12-.01.248-.01.377-.01-.092-2.865-.276-5.758-.423-8.706Zm0 0-.22-4.013-.028-.45V82c.01 1.24.019 2.489.037 3.729.037 3.003.156 6.006.257 9 .12-.01.248-.01.377-.01-.092-2.865-.276-5.758-.423-8.706Zm0 0-.22-4.013-.028-.45V82c.01 1.24.019 2.489.037 3.729.037 3.003.156 6.006.257 9 .12-.01.248-.01.377-.01-.092-2.865-.276-5.758-.423-8.706Zm0 0-.22-4.013-.028-.45V82c.01 1.24.019 2.489.037 3.729.037 3.003.156 6.006.257 9 .12-.01.248-.01.377-.01-.092-2.865-.276-5.758-.423-8.706Zm0 0-.22-4.013-.028-.45V82c.01 1.24.019 2.489.037 3.729.037 3.003.156 6.006.257 9 .12-.01.248-.01.377-.01-.092-2.865-.276-5.758-.423-8.706Z"></path>
  <path fill="#f2195c" d="M137.74 448.119a27.28 27.28 0 0 1-3.269-15.938 51.045 51.045 0 0 1 4.25-15.902c2.173-5.046 4.677-9.879 7.045-14.78 2.366-4.904 4.882-9.733 7.317-14.602 4.944-9.708 10.182-19.266 15.34-28.859l7.78-14.366 7.837-14.338q7.883-14.317 16.368-28.299 4.248-6.984 8.629-13.887a75.044 75.044 0 0 1 10.244-12.953 68.809 68.809 0 0 1 12.902-10.34 50.106 50.106 0 0 1 15.287-6.353 29.345 29.345 0 0 1 8.327-.73 21.198 21.198 0 0 1 8.024 2.392 26.355 26.355 0 0 1 6.603 5.023 28.35 28.35 0 0 1 4.685 6.773l.01.02.004.014 1.209 4.238-.191.06-1.427-4.17.014.034A26.75 26.75 0 0 0 263.3 260.2a19.893 19.893 0 0 0-7.597-1.979 14.953 14.953 0 0 0-1.969.025c-.66.051-1.322.054-1.98.143l-1.969.297c-.658.084-1.299.287-1.949.424a48.498 48.498 0 0 0-14.596 6.445 66.768 66.768 0 0 0-12.477 10.099 82.15 82.15 0 0 0-10.004 12.601q-4.438 6.845-8.78 13.753-8.666 13.825-17.042 27.84c-2.76 4.69-5.51 9.387-8.136 14.154l-3.944 7.148-3.803 7.224c-5.058 9.64-9.727 19.476-14.478 29.268-2.42 4.877-4.76 9.794-7.249 14.636-2.434 4.87-5.005 9.681-7.205 14.61a51.911 51.911 0 0 0-4.615 15.39 33.097 33.097 0 0 0 .055 8.037 25.202 25.202 0 0 0 2.353 7.709ZM276.236 302.028c1.864 4.375 3.502 8.833 4.995 13.342a187.235 187.235 0 0 1 3.978 13.689c1.124 4.621 2.088 9.287 2.774 13.996a121.614 121.614 0 0 1 1.313 14.197l-2.849-13.92c-.993-4.616-2.03-9.217-3.179-13.794-1.111-4.586-2.334-9.149-3.527-13.726-1.206-4.575-2.427-9.151-3.505-13.784ZM527.965 430.21a67.076 67.076 0 0 1-6.855 8.127c-1.22 1.289-2.503 2.511-3.784 3.737a148.147 148.147 0 0 1-3.925 3.6l.083-.907c5.7 6.545 11.284 13.187 16.87 19.826q4.168 4.996 8.264 10.053c2.777 3.35 5.19 6.965 8.62 9.493l-.757.104c3.898-4.742 7.789-9.49 11.584-14.313l2.84-3.622a5.163 5.163 0 0 0 .614-.875.883.883 0 0 0-.056-.822 7.869 7.869 0 0 0-1.52-1.55c-2.317-2.036-4.48-4.234-6.615-6.45-4.25-4.456-8.213-9.16-12.399-13.611a80.4 80.4 0 0 0-13.578-12.066.948.948 0 0 1-.33-1.173l.01-.022c1.478-3.276 3.015-6.525 4.446-9.821l2.102-4.962a132.62 132.62 0 0 0 2.06-4.979c2.733-6.646 5.184-13.4 7.562-20.181 2.329-6.8 4.384-13.689 6.28-20.625a236.941 236.941 0 0 0 2.591-10.472c.801-3.507 1.518-7.038 2.087-10.591l.199.021a166.936 166.936 0 0 1-3.617 21.354c-1.58 7.054-3.583 14.006-5.721 20.912-1.136 3.431-2.238 6.878-3.512 10.26l-1.869 5.092-2.022 5.032c-1.3 3.376-2.832 6.653-4.27 9.969-1.485 3.295-3.076 6.542-4.609 9.814l-.32-1.195a64.744 64.744 0 0 1 7.224 5.91c2.26 2.128 4.358 4.402 6.411 6.702 4.076 4.628 7.83 9.484 11.923 14.034a79.788 79.788 0 0 0 6.427 6.535 8.102 8.102 0 0 1 1.647 1.758 1.55 1.55 0 0 1 .06 1.391 5.473 5.473 0 0 1-.706 1.004l-2.856 3.61c-3.8 4.818-7.505 9.713-11.203 14.613a.538.538 0 0 1-.736.118l-.02-.014a28.516 28.516 0 0 1-4.93-4.435l-4.282-4.926q-4.252-4.927-8.41-9.932c-5.532-6.684-11.066-13.366-16.482-20.145l-.011-.014a.64.64 0 0 1 .094-.893c2.715-2.223 5.353-4.571 7.931-6.968a77.744 77.744 0 0 0 7.305-7.624ZM458.324 223.8a4.346 4.346 0 0 0 1.897 1.35 1.526 1.526 0 0 0 .762-.061 5.548 5.548 0 0 0 .94-.403c.674-.342 1.382-.773 2.123-1.187a19.202 19.202 0 0 1 2.416-1.186 6.939 6.939 0 0 1-1.418 2.402 7.592 7.592 0 0 1-2.218 1.755 4.548 4.548 0 0 1-1.52.484 2.67 2.67 0 0 1-1.795-.406 2.923 2.923 0 0 1-1.187-2.749ZM349.968 354.679a85.183 85.183 0 0 1 16.269-4.245 61.146 61.146 0 0 1 16.908-.574c.71.05 1.408.226 2.113.337a15.061 15.061 0 0 1 2.141.46 36.645 36.645 0 0 1 3.963 1.656c2.54 1.211 5.025 2.493 7.502 3.794 4.941 2.624 9.863 5.265 14.85 7.785 2.495 1.254 4.956 2.581 7.476 3.767a150.74 150.74 0 0 0 3.791 1.753l1.919.836c.321.138.647.285.98.445a2.926 2.926 0 0 1 1.06.791 4.813 4.813 0 0 1 .522 1.108l.397.985a1.94 1.94 0 0 1 .13.775 1.54 1.54 0 0 1-.303.87 2.396 2.396 0 0 1-1.239.816 12.91 12.91 0 0 1-4.464.22 44.098 44.098 0 0 1-8.414-1.564c-2.766-.91-5.26-2.145-7.834-3.094a29.38 29.38 0 0 0-7.818-1.923 109.182 109.182 0 0 0-16.518.507l.645-.397a12.546 12.546 0 0 1-2.272 2.26 17.32 17.32 0 0 1-2.585 1.693 21.01 21.01 0 0 1-5.728 2.057l-1.488.276c-.499.07-1 .11-1.5.165-.996.14-2.002.098-3 .137-.998.003-1.993-.106-2.984-.158l-2.949-.41.105-.008-3.173.775-.056-.192 3.087-1.066.035-.012.07.004 2.926.17c.976-.026 1.949-.01 2.916-.061.965-.098 1.937-.112 2.884-.304.475-.082.953-.146 1.424-.24l1.397-.347a22.378 22.378 0 0 0 5.25-2.175 15.678 15.678 0 0 0 2.29-1.62 11.192 11.192 0 0 0 1.847-1.947l.24-.343.405-.053c2.8-.367 5.586-.654 8.401-.817a60.17 60.17 0 0 1 8.516-.022 28.695 28.695 0 0 1 8.373 2.14c2.644 1.04 5.153 2.335 7.68 3.219a36.706 36.706 0 0 0 3.946 1.014c1.343.29 2.696.537 4.045.699a11.822 11.822 0 0 0 3.863-.014 1.154 1.154 0 0 0 .52-.246c.043-.042.082-.109.015-.347-.07-.246-.24-.658-.334-.976a4.492 4.492 0 0 0-.303-.81 4.968 4.968 0 0 0-1.5-.929l-1.876-.934a151.501 151.501 0 0 1-3.729-1.94l-7.386-3.96q-7.392-3.936-15.042-7.356c-2.54-1.15-5.086-2.294-7.653-3.344-1.28-.506-2.576-1.069-3.817-1.437a5.851 5.851 0 0 0-.948-.207l-1.009-.173c-.675-.101-1.337-.268-2.023-.31a71.018 71.018 0 0 0-16.495.193q-4.133.448-8.232 1.257c-2.74.489-5.461 1.097-8.165 1.78Z"></path>
  <path fill="#f4648a" d="M328.179 223.33a58.336 58.336 0 0 1 6.978-12.847 9.221 9.221 0 0 1 3.779-3.473c2.254-.896 4.833-.034 6.908 1.223s3.926 2.916 6.179 3.817a10.419 10.419 0 0 0 8.38-.333 24.005 24.005 0 0 1 4.088-2.08c1.48-.406 3.377.036 3.926 1.468.47 1.226-.189 2.773.578 3.84 1.115 1.55 3.57.298 4.808-1.156a23.806 23.806 0 0 0 2.69-26.166c-3.172-5.803-8.641-9.963-14.177-13.581-5.305-3.468-10.819-6.605-16.328-9.74a38.553 38.553 0 0 0-8.155-3.83c-4.829-1.402-9.98-.866-14.977-.311-4.087.453-8.24.928-12.023 2.536-4.51 1.917-8.201 5.314-11.772 8.67a84.109 84.109 0 0 0-9.854 10.427 24.557 24.557 0 0 0-4.325 8.273c-.845 3.156-.764 6.473-1.07 9.726-.456 4.853-1.782 9.729-.966 14.535 1.425 8.382 9.18 15.469 7.927 23.879a41.755 41.755 0 0 1 20.111-9.348c2.15-.357 4.644-.745 5.73-2.633a6.85 6.85 0 0 0 .54-3.777l-.423-8.807a17.804 17.804 0 0 1 .489-6.5 6.05 6.05 0 0 1 4.523-4.275c2.37-.333 4.665 1.354 5.753 3.485a15.166 15.166 0 0 1 1.207 7.005c-.012 3.234-.232 6.468-.524 9.974Z"></path>
  <path fill="#f25787" d="M356.248 206.352c-1.088-2.131-3.383-3.818-5.753-3.485a6.05 6.05 0 0 0-4.523 4.276 9.633 9.633 0 0 0-.269 1.01c.046.028.095.052.14.08 2.075 1.257 3.927 2.916 6.18 3.817a10.382 10.382 0 0 0 5.428.59 14.036 14.036 0 0 0-1.203-6.288ZM311.598 214.328c-.817-4.806.51-9.682.966-14.535.306-3.253.224-6.57 1.07-9.726a24.56 24.56 0 0 1 4.325-8.273 84.12 84.12 0 0 1 9.854-10.427c3.57-3.356 7.262-6.753 11.771-8.67.667-.283 1.348-.52 2.036-.74a24.786 24.786 0 0 0-3.787-1.485c-4.828-1.402-9.98-.866-14.977-.311-4.087.453-8.24.929-12.023 2.536-4.51 1.917-8.2 5.314-11.771 8.67a84.087 84.087 0 0 0-9.855 10.427 24.554 24.554 0 0 0-4.325 8.273c-.845 3.156-.764 6.473-1.07 9.726-.456 4.853-1.782 9.729-.966 14.535 1.425 8.382 9.18 15.469 7.927 23.879a41.755 41.755 0 0 1 20.111-9.348c2.127-.353 4.588-.742 5.692-2.58-1.963-3.878-4.265-7.752-4.978-11.951ZM374.595 208.233c-2.074-1.257-4.654-2.119-6.908-1.223a7.83 7.83 0 0 0-3.135 2.615c1.47-.378 3.323.067 3.865 1.48.47 1.226-.189 2.773.578 3.84 1.115 1.55 3.571.298 4.808-1.156a21.843 21.843 0 0 0 2.802-4.217 36.752 36.752 0 0 0-2.01-1.339Z"></path>
  <path fill="#f4648a" d="M205.936 443.29s-18.81 8.455-31.28 3.723c0 0-21.658-16.724-25.615-20.443s-10.037-13.018-14.224-15.55-15.53-4.973-16.478 2.474.629 9.475 10.206 24.866 4.564 9.498 11.691 19.737 14.323 16.308 17.387 28.47 12.47 8.073 17.559 3.395 15.504-13.986 42.092-21.644"></path>
  <path fill="#f2195c" d="M166.853 474.773a32.033 32.033 0 0 0-14.039.406 40.421 40.421 0 0 1 4.809 11.388c3.063 12.162 12.47 8.073 17.559 3.395a72.96 72.96 0 0 1 8.09-6.567 32.009 32.009 0 0 0-16.419-8.622ZM141.506 417.729c-2.37-2.874-4.735-5.528-6.689-6.71-4.187-2.533-15.53-4.972-16.478 2.475-.71 5.574-.004 8.113 4.411 15.49a32.277 32.277 0 0 0 18.756-11.255ZM198.575 446.116l9.548 25.11 12.937-4.154-11.243-25.98-11.242 5.024z"></path>
</svg>