<svg xmlns="http://www.w3.org/2000/svg" data-name="Layer 1" viewBox="0 0 700 550" id="CoupleHugging">
  <path fill="#effbff" d="M222.21 506.374c-32.662-7.89-58.879-37.548-62.7-70.932-3.706-32.37 11.78-65.225 5.199-97.135-4.875-23.636-21.09-43.028-32.6-64.24-21.903-40.362-26.715-89.444-14.091-133.597s74.05-147.64 318.184-68.239c14.29 4.648 15.677 26.071 27.113 35.82 16.575 14.13 40.81 18.408 54.387 35.44 13.59 17.048 12.165 41.04 14.403 62.727a165.165 165.165 0 0 0 22.028 66.844c9.277 15.693 21.21 29.942 28.117 46.812 15.819 38.632 1.634 84.605-25.744 116.118-8.539 9.828-18.343 18.704-25.14 29.808s-10.21 25.382-4.708 37.182a1171.39 1171.39 0 0 1-174.448 1.219c-43.946-2.975-88.661-8.375-130 2.173Z" class="colore6f6df svgShape"></path>
  <path fill="#c8e5ef" d="M132.11 274.067q1.22 2.249 2.506 4.472l.222.382q1.206 2.084 2.453 4.152l.22.368a711.7 711.7 0 0 0 5.48 8.884 52.302 52.302 0 0 0 15.62 3.471c15.72 1.057 25.984-19.555 30.944-34.51 2.461-7.422 2.832-15.391 2.34-23.195-1.052-16.667-5.907-32.843-8.364-49.361-2.457-16.518-2.28-34.284 5.985-48.796 6.47-11.36 17.182-19.535 27.12-28.03 13.712-11.72 26.654-24.918 34.592-41.115a71.227 71.227 0 0 0 7.244-26.93c-97.16 7.01-130.075 63.16-139.752 94.262-.235.78-.476 1.558-.7 2.341l-.002.008q-2.367 8.279-3.918 16.762-1.55 8.47-2.286 17.064c-2.946 34.323 3.868 69.5 20.295 99.771Z" class="colord5efc8 svgShape"></path>
  <path fill="#afdae9" d="M241.06 456.986c-8.128-5.311-18.96-5.479-26.65-11.407-11.719-9.033-11.957-27.97-23.804-36.835-7.508-5.618-17.86-5.647-27.014-3.618 0 0-1.391 1.014-3.567 2.881a118.678 118.678 0 0 0-.515 27.435c3.821 33.384 30.038 63.042 62.7 70.932a196.993 196.993 0 0 1 32.218-5.26 21.22 21.22 0 0 0-.461-3.571c1.871-14.857-.371-32.366-12.907-40.557ZM463.315 108.05c-11.436-9.748-12.823-31.171-27.113-35.819q-8.164-2.655-16.052-5.036c-4.802 12.16-9.223 24.856-7.798 37.772 1.86 16.847 13.344 31.006 25.655 42.657 12.31 11.65 26.145 22.142 35.197 36.472 11.46 18.144 13.974 40.343 21.016 60.615 2.226 6.41 5.406 13.186 11.534 16.099 5.025 2.389 11.1 1.59 16.13-.788 5.03-2.378 9.231-6.172 13.352-9.91a13.7 13.7 0 0 0 6.228-3.752l-.001-.003a165.673 165.673 0 0 1-5.857-19.45c-.074-.313-.142-.627-.214-.94q-.432-1.883-.82-3.775-.138-.673-.27-1.348-.335-1.714-.633-3.434c-.088-.503-.177-1.006-.26-1.51-.19-1.153-.362-2.31-.527-3.467-.066-.464-.14-.928-.201-1.393-.215-1.605-.41-3.212-.576-4.822-2.238-21.688-.812-45.679-14.403-62.727-11.29-14.164-29.949-19.512-45.446-29.036a82.624 82.624 0 0 1-4.092-2.671q-1.48-1.035-2.898-2.149a59.522 59.522 0 0 1-1.95-1.584Z" class="colorc1e9af svgShape"></path>
  <path fill="#94cee1" d="M588.826 352.163c-23.509-1.688-47.643 10.36-60.159 30.387-4.601 7.363-7.708 15.611-12.649 22.75-5.602 8.097-13.347 14.462-19.547 22.11-16.968 20.93-20.764 51.69-9.394 76.117 0 0 .633.706 1.813 1.915q18.902-.931 37.768-2.46c-5.501-11.8-2.09-26.078 4.708-37.182s16.601-19.98 25.14-29.808c20.026-23.05 32.99-53.837 32.32-83.83Z" class="colorade194 svgShape"></path>
  <path fill="#c8e5ef" d="M366.807 389.542s20.456 105.8-26.44 112.747l107.03 1.173s9.705-42.27-2.439-58.913-78.151-55.007-78.151-55.007ZM436.73 414.465c-11.627 1.815-24.783-1.19-24.647-17.696.225-28.97-6.74-68.987-11.289-88.695-4.111-17.817-34.3-39.942-40.032-44.015a56.095 56.095 0 0 0 6.168 3.516q6.867 3.457 13.728 6.928c13.75 6.936 27.885 14.165 37.878 25.883 11.402 13.359 16.198 31.229 17.652 48.73 1.287 15.497.467 46.312.542 65.35Z" class="colord5efc8 svgShape"></path>
  <path fill="#2087a9" d="M340.194 249.724a33.45 33.45 0 0 1 8.55-.734 6.266 6.266 0 0 1 2.664.55c2.274 1.192 2.46 4.581 1.125 6.775s-3.669 3.535-5.785 4.99q-1.446.994-2.8 2.095h-.087a37.309 37.309 0 0 1-3.967-13.554ZM370.055 375.975c-1.857-2.235-4.4 3.453-5.12 6.269-.158.618-.225 1.389.277 1.784a1.728 1.728 0 0 0 1.415.14 29.012 29.012 0 0 0 7.564-2.825l-1.306-1.915c-1.122-1.376-1.695-2.087-2.83-3.453Z" class="color47a920 svgShape"></path>
  <path fill="#44a8ca" d="m288.329 264.692 7.122 11.33c.612.973 1.248 2.13.86 3.212a4.557 4.557 0 0 0-4.295-2.896 11.794 11.794 0 0 0-5.289 1.441c-3.972 1.856-7.858 4.191-10.53 7.667s-3.769 9.062-2.13 13.128a86.102 86.102 0 0 1-17.292-5.742 32.303 32.303 0 0 1-9.945-6.416c-2.774-2.837-4.702-6.701-4.472-10.663a14.157 14.157 0 0 1 4.164-8.787 28.38 28.38 0 0 1 8.16-5.568 57.767 57.767 0 0 1 13.088-4.525h.218a15.782 15.782 0 0 1 .368 2.85c.12 2.516.026 5.38 1.85 7.117 1.31 1.246 3.248 1.517 5.051 1.624a12.676 12.676 0 0 0 3.757-.2 21.815 21.815 0 0 0 4.45-2.021 37.097 37.097 0 0 1 4.656-1.867Z" class="color68ca44 svgShape"></path>
  <path fill="#2399c1" d="M271.961 298.086q1.05.256 2.107.488a11.398 11.398 0 0 1-.77-4.132 15.278 15.278 0 0 0-1.337 3.644ZM295.45 276.021l-7.121-11.329-.209-.316a37.072 37.072 0 0 0-4.656 1.867 21.804 21.804 0 0 1-4.45 2.022 12.674 12.674 0 0 1-3.757.2c-1.803-.108-3.742-.38-5.05-1.625-1.825-1.737-1.731-4.601-1.85-7.117a15.82 15.82 0 0 0-.369-2.85h-.218a57.764 57.764 0 0 0-13.088 4.525 28.383 28.383 0 0 0-8.16 5.568 14.16 14.16 0 0 0-4.163 8.787 11.286 11.286 0 0 0 .02 1.562 16.47 16.47 0 0 1 2.42-3.222 28.38 28.38 0 0 1 8.161-5.568A57.777 57.777 0 0 1 266.047 264h.22a15.782 15.782 0 0 1 .367 2.85c.12 2.516.026 5.38 1.85 7.117 1.31 1.246 3.248 1.517 5.051 1.625a12.689 12.689 0 0 0 3.757-.2 21.824 21.824 0 0 0 4.45-2.022 37.059 37.059 0 0 1 4.656-1.867l.209.316 3.036 4.831a7.934 7.934 0 0 1 2.374-.312 4.556 4.556 0 0 1 4.295 2.896c.387-1.083-.25-2.239-.862-3.213Z" class="color4fc123 svgShape"></path>
  <ellipse cx="384.716" cy="243.576" fill="#2087a9" rx="2.353" ry="3.954" class="color47a920 svgShape"></ellipse>
  <ellipse cx="270.501" cy="215.576" fill="#2087a9" rx="2.165" ry="3.765" class="color47a920 svgShape"></ellipse>
  <path fill="#44a8ca" d="M447.397 503.462q-1.561-20.68-4.99-41.164l-.702-5.614 14.368-11.657c14.369-11.657 9.57-1.156 9.57-1.156a440.042 440.042 0 0 0 5.03 59.485Z" class="color68ca44 svgShape"></path>
  <path fill="#2087a9" d="M465.642 443.87s4.8-10.5-9.569 1.157l-14.368 11.657.702 5.614q.852 5.088 1.59 10.196a29.553 29.553 0 0 0 13.073-5.391 44.987 44.987 0 0 0 9.034-8.833c-.25-4.95-.407-9.79-.462-14.4Z" class="color47a920 svgShape"></path>
  <path fill="#44a8ca" d="m484.044 399.088-.776 1.807c-4.458 14.368-9.029 28.962-17.124 41.606a.007.007 0 0 1-.007.008 62.256 62.256 0 0 1-1.379 2.086 49.892 49.892 0 0 1-11.792 12.583 30.482 30.482 0 0 1-10.58 4.925 24.045 24.045 0 0 1-5.536.678c-7.779.037-15.076-3.84-21.228-8.6-6.544-5.06-12.185-11.19-17.524-17.508a295.759 295.759 0 0 1-22.847-30.936 190.332 190.332 0 0 1-2.455-3.923c-.384-.648-.776-1.303-1.145-1.958a73.073 73.073 0 0 1-1.837-3.358q-.52-1.017-.994-2.034a44.018 44.018 0 0 1-3.389-9.91l-.218-.527a1.734 1.734 0 0 0 1.415.143q.35-.068.7-.158a1.309 1.309 0 0 0 .166-.038c.053-.015.106-.022.159-.038.286-.075.58-.15.866-.24a.147.147 0 0 0 .075-.023c.256-.075.512-.15.768-.241.06-.023.128-.045.188-.068.12-.037.241-.075.362-.12.188-.06.369-.128.55-.204.496-.188.986-.391 1.476-.61.24-.105.481-.218.722-.33.49-.227.972-.468 1.446-.716a.158.158 0 0 0 .076-.045c.007.007.007 0 .007 0 .354-.181.7-.362 1.047-.558.331-.18.662-.369.994-.557.7-.4 1.393-.813 2.078-1.228q6.1-3.704 11.846-7.967a10.895 10.895 0 0 0 1.973-1.74.588.588 0 0 0 .06-.082 3.273 3.273 0 0 0 .331-.859 2.127 2.127 0 0 0 .06-.323 182.398 182.398 0 0 1 6.349 4.141c.625.422 1.25.859 1.867 1.296q1.92 1.344 3.796 2.756c.602.452 1.205.903 1.792 1.363a116.545 116.545 0 0 1 7.786 6.559c6.484 5.987 14.067 14.549 22.329 17.644-.4-17.561 1.144-35.168-.31-52.669q-.248-2.982-.632-5.964c-.053-.429-.113-.866-.173-1.302a77.598 77.598 0 0 0-.249-1.687l-.226-1.408q-.157-.96-.338-1.92c-.083-.46-.166-.912-.257-1.364-.067-.369-.143-.73-.218-1.1-.135-.64-.271-1.287-.421-1.927-.053-.241-.106-.482-.166-.723a60.413 60.413 0 0 0-.407-1.68c-.007-.037-.022-.082-.03-.12-.06-.218-.113-.437-.173-.655a52.488 52.488 0 0 0-.587-2.131c-.121-.43-.242-.858-.377-1.28a5.596 5.596 0 0 0-.098-.34c5.565 9.58 16.401 14.136 24.836 21.327 7.018 5.98 12.237 14.745 11.845 23.955-.18 4.18-1.483 8.223-2.462 12.29-.98 4.066-1.65 8.366-.565 12.41 1.084 4.044 4.315 7.756 8.472 8.246-3.788-3.42-4.534-9.225-3.404-14.203a37.325 37.325 0 0 1 2.545-7.176c1.054-2.32 2.221-4.594 3.306-6.898 0 0 .008 0 0-.008l.008-.007c-.016.12-.03.248-.038.369-.045.421-.09.843-.128 1.265l-.09 1.062a33.158 33.158 0 0 0-.098 3.57 21.927 21.927 0 0 0 .18 2.213c.038.286.076.565.128.851.03.158.053.316.09.474a.205.205 0 0 0 .008.068c.015.106.045.211.068.324.03.166.068.324.105.49 0 .007 0 .007.008.014.045.234.098.467.166.7a.11.11 0 0 0 .015.046c.045.173.09.339.143.512a1.493 1.493 0 0 0 .083.286c.037.15.09.302.143.46.09.308.195.617.309.918.082.241.18.497.286.738a.362.362 0 0 0 .03.083c.045.113.098.234.15.347a.395.395 0 0 0 .045.12c.076.18.151.362.242.535a.133.133 0 0 0 .03.075q.158.35.338.7a.798.798 0 0 0 .068.143c.06.136.136.264.203.392.159.324.34.648.528.964.12.226.256.444.391.663q.238.384.497.768.17.26.362.52a.317.317 0 0 0 .068.105c.097.143.203.294.316.437.256.361.527.715.813 1.054.173.218.362.437.55.655a26.79 26.79 0 0 0 1.619 1.717Z" class="color68ca44 svgShape"></path>
  <path fill="#2087a9" d="M282.24 368.233a2.505 2.505 0 1 1-2.504-2.505 2.505 2.505 0 0 1 2.505 2.505Z" class="color47a920 svgShape"></path>
  <path fill="#c8e5ef" d="M286.813 389.999q-.938 11.261-2.719 22.433c-1.092 6.8-2.5 13.788-6.393 19.474-2.553 3.735-6.055 6.71-9.511 9.639a13.76 13.76 0 0 1-3.683 2.492 8.383 8.383 0 0 1-5.158.204c-5.332-1.386-8.675-6.522-11.394-11.311q-5.083-8.946-9.646-18.186c-2.945-5.942-5.754-12.064-6.763-18.616 0 0 28.91 29.196 40.432 6.484l11.529-22.712a12.262 12.262 0 0 0 1.935 2.32c1.702 2.1 1.597 5.083 1.37 7.779Z" class="colord5efc8 svgShape"></path>
  <path fill="#2087a9" d="M304.951 215.833a3.689 3.689 0 0 1 2.092 3.54 3.65 3.65 0 0 1-.848 2.189 4.254 4.254 0 0 1-1.995 1.315 4.145 4.145 0 0 1-2.468.04c-.873-.296-1.399-.695-1.666-.644a1.35 1.35 0 0 0-.981.506 2.477 2.477 0 0 0-.52 1.321 8.408 8.408 0 0 0-.04 1.784 3.44 3.44 0 0 0 .398 1.49 1.354 1.354 0 0 0 .917.667.715.715 0 0 0 .467-.098c.209-.102.47-.313.833-.532a2.264 2.264 0 0 1 1.427-.346 2.814 2.814 0 0 1 1.205.453 4.683 4.683 0 0 0 1.544.834c.42.087.924-.289 1.166-.834a4.974 4.974 0 0 0 .266-1.925 4.371 4.371 0 0 1 .265 2.085 2.183 2.183 0 0 1-.513 1.058 1.774 1.774 0 0 1-1.165.598 4.938 4.938 0 0 1-2.167-.653 1.734 1.734 0 0 0-.7-.176.777.777 0 0 0-.474.212c-.2.151-.44.399-.804.652a2.443 2.443 0 0 1-1.452.422 3.13 3.13 0 0 1-2.403-1.387 5.017 5.017 0 0 1-.756-2.343 10.024 10.024 0 0 1 .01-2.25c.161-1.533 1.434-3.569 3.635-3.42a3.278 3.278 0 0 1 1.293.46 6.088 6.088 0 0 0 .765.408 2.906 2.906 0 0 0 1.518.116 2.815 2.815 0 0 0 2.273-2.12 3.538 3.538 0 0 0-1.122-3.422Z" class="color47a920 svgShape"></path>
  <path fill="#2087a9" d="M299.798 234.825a12.787 12.787 0 0 0 2.7.267 4.142 4.142 0 0 0 2.217-.85 19.696 19.696 0 0 0 3.659-3.682 30.778 30.778 0 0 0 2.855-4.48c.848-1.591 1.593-3.258 2.417-4.966a17.503 17.503 0 0 1-.984 5.584 17.303 17.303 0 0 1-2.71 5.089 13.736 13.736 0 0 1-4.458 3.8 4.722 4.722 0 0 1-3.077.478 7.428 7.428 0 0 1-2.62-1.24ZM300.962 239.324a6.667 6.667 0 0 1 .317 2.195 10.335 10.335 0 0 1-.244 2.106 7.387 7.387 0 0 1-.722 2.04 3.668 3.668 0 0 1-.773.959 1.714 1.714 0 0 1-1.159.438 4.324 4.324 0 0 0 .442-1.901 14.937 14.937 0 0 1 .269-2.004 9.875 9.875 0 0 1 .654-1.961 7.163 7.163 0 0 1 1.216-1.872ZM263.213 200.847a21.581 21.581 0 0 1 1.996 7.072c.154 1.2.334 2.398.462 3.617a19.724 19.724 0 0 1 .12 3.841 12.96 12.96 0 0 1-.867 3.901 10.539 10.539 0 0 1-2.183 3.39c-1.779 1.911-3.854 3.228-5.273 5a5.423 5.423 0 0 0-.835 1.297c-.104.406-.068.351.137.632a12.565 12.565 0 0 0 1.23 1 17.073 17.073 0 0 1 1.454 1.234 8.766 8.766 0 0 1 2.335 3.416 5.765 5.765 0 0 1-.166 4.384 4.658 4.658 0 0 1-.644.979 6.717 6.717 0 0 0-.463.534c-.052.137-.029-.13-.13-.152-.06-.002.202.16.473.283a14.856 14.856 0 0 0 3.294 1.148 14.395 14.395 0 0 0 6.923-.103l.004-.001 1.167-.238-.064 1.208a8.751 8.751 0 0 1-7.868 8.04h-.004l.719-.956a5.922 5.922 0 0 0 1.684 2.207 8.096 8.096 0 0 1 1.879 3.074c.81 2.259.695 4.626.889 6.65.17 2.069.856 3.818 2.511 4.472a9.168 9.168 0 0 0 2.823.6 16.905 16.905 0 0 0 3.051.05c1.883-.137 3.626-1.315 5.714-2.256a53.12 53.12 0 0 1 6.25-2.146 31.33 31.33 0 0 0 5.977-2.262 12.985 12.985 0 0 0 4.84-4.059l.173.102a12.622 12.622 0 0 1-4.538 4.771 32.457 32.457 0 0 1-5.98 2.837 63.223 63.223 0 0 0-5.942 2.412c-.93.456-1.836 1.024-2.856 1.546a9.75 9.75 0 0 1-3.409 1.09 18.802 18.802 0 0 1-3.45.018 10.402 10.402 0 0 1-3.508-.788 5.602 5.602 0 0 1-2.8-2.695 9.615 9.615 0 0 1-.834-3.517c-.09-1.137-.075-2.24-.137-3.267a12.171 12.171 0 0 0-.514-2.97 6.496 6.496 0 0 0-1.42-2.476c-.343-.384-.74-.783-1.119-1.269a4.185 4.185 0 0 1-.851-1.805l-.153-.828.872-.129h.003a7.018 7.018 0 0 0 6.109-6.522l1.103.97h-.004a27.768 27.768 0 0 1-7.524-.409 24.45 24.45 0 0 1-3.634-1.01 2.719 2.719 0 0 1-1.109-.584 1.532 1.532 0 0 1-.44-.953 1.825 1.825 0 0 1 .165-.89 5.902 5.902 0 0 1 .582-.946 2.657 2.657 0 0 0 .275-.583 4.075 4.075 0 0 0-.223-2.71 8.257 8.257 0 0 0-1.778-2.506c-.387-.4-.806-.797-1.235-1.209a11.832 11.832 0 0 1-1.431-1.465 2.729 2.729 0 0 1-.527-1.38 2.697 2.697 0 0 1 .301-1.397 4.89 4.89 0 0 1 .612-.918c.2-.264.409-.517.627-.756 1.732-1.926 3.743-3.36 5.131-5.131a9.419 9.419 0 0 0 1.86-6.079 28.11 28.11 0 0 0-.223-3.41l-.378-3.602a16.443 16.443 0 0 1 .57-7.39ZM343.417 263.63a37.815 37.815 0 0 1-4.183-16.773l1-.011a36.805 36.805 0 0 0 4.071 16.325Z" class="color47a920 svgShape"></path>
  <path fill="#2087a9" d="M294.708 262.408a18.155 18.155 0 0 1 2.691 4.638 30.054 30.054 0 0 1 1.594 5.102 36.07 36.07 0 0 1 .75 5.264 28.377 28.377 0 0 1-.071 5.33 46.892 46.892 0 0 1-1.471-5.091q-.616-2.545-1.161-5.074l-1.12-5.053ZM340.172 249.626a24.167 24.167 0 0 1 7.87-1.433 15.25 15.25 0 0 1 2.081.068 4.952 4.952 0 0 1 2.215.816 4.812 4.812 0 0 1 1.858 4.185 6.473 6.473 0 0 1-1.634 3.997 15.756 15.756 0 0 1-3.131 2.607c-1.095.757-2.216 1.44-3.236 2.254a33.613 33.613 0 0 0-2.941 2.576c-1.852 1.836-3.565 3.79-5.274 5.745-1.688 1.976-3.275 4.04-4.9 6.087l-4.93 6.094a38.038 38.038 0 0 0-4.193 6.553l-.19-.06a23.779 23.779 0 0 1 3.085-7.384c1.437-2.287 2.961-4.378 4.546-6.515a72.85 72.85 0 0 1 5.186-6.036 43.333 43.333 0 0 1 5.957-5.315c2.112-1.616 4.408-2.996 6.51-4.525a10.463 10.463 0 0 0 2.617-2.745 5.494 5.494 0 0 0 .863-3.331 3.666 3.666 0 0 0-1.234-2.753 6.24 6.24 0 0 0-3.288-.769 56.054 56.054 0 0 0-7.794.08Z" class="color47a920 svgShape"></path>
  <path fill="#2087a9" d="M295.395 277.018a13.116 13.116 0 0 0 1.487 2.246 12.317 12.317 0 0 0 1.716 1.874 2.504 2.504 0 0 0 .448.282l.553.291c.376.187.771.355 1.18.52.809.33 1.678.688 2.521 1.128a22.22 22.22 0 0 1 4.576 3.208 16.555 16.555 0 0 1 3.529 4.284 117.595 117.595 0 0 0-4.478-3.045 61.166 61.166 0 0 0-4.552-2.675c-.759-.407-1.56-.759-2.395-1.188-.413-.22-.83-.45-1.243-.71a8.322 8.322 0 0 1-.608-.416 4.218 4.218 0 0 1-.613-.563 9.193 9.193 0 0 1-1.48-2.503 7.375 7.375 0 0 1-.641-2.733ZM271.807 297.527a35.618 35.618 0 0 1 5.97.999 57.078 57.078 0 0 1 5.766 1.733 54.15 54.15 0 0 1 5.552 2.342 31.955 31.955 0 0 1 5.205 3.1c-1.983-.471-3.89-1.046-5.787-1.652a152.733 152.733 0 0 1-5.646-1.909q-2.804-1.004-5.569-2.135c-1.847-.751-3.682-1.54-5.491-2.478ZM266.885 308.077c-.204 2.048-.471 4.033-.694 6.015a147.81 147.81 0 0 0-.84 11.871c-.058 1.994-.075 3.996-.165 6.053a24.81 24.81 0 0 1-1.393-5.985 33.12 33.12 0 0 1 .87-12.226 24.951 24.951 0 0 1 2.222-5.728ZM235.74 381.66a4.441 4.441 0 0 1 1.313-1.311 5.918 5.918 0 0 1 1.553-.726 5.827 5.827 0 0 1 1.696-.252 4.396 4.396 0 0 1 1.818.375 5.4 5.4 0 0 1-1.424 1.148 7.22 7.22 0 0 1-1.515.645 7.375 7.375 0 0 1-1.621.293 5.469 5.469 0 0 1-1.82-.173Z" class="color47a920 svgShape"></path>
  <path fill="#2087a9" d="M239.96 386.346a46.706 46.706 0 0 1 8.214-14.314c1.775-2.132 3.824-4.01 5.43-6.213a27.556 27.556 0 0 0 3.561-7.333l1.318-3.92a25.534 25.534 0 0 1 1.569-3.897c1.343-2.463 2.893-4.746 4.446-7.037 3.145-4.556 6.344-9.034 9.785-13.408l.484-.614.486.637c1.93 2.531 3.298 5.355 5.03 7.838a26.12 26.12 0 0 0 6.319 6.425c.624.43 1.232.882 1.888 1.27l.966.604a1.592 1.592 0 0 1 .432.4 1.678 1.678 0 0 1 .223.418 3.272 3.272 0 0 1 .192.712 20.791 20.791 0 0 1-.073 4.845c-.31 3.119-.896 6.204-1.42 9.247a70.707 70.707 0 0 1-2.333 9.104 73.255 73.255 0 0 1-1.608 4.416c-.57 1.395-1.041 2.82-.627 3.85a4.675 4.675 0 0 0 1.195 1.534 7.323 7.323 0 0 1 1.54 2.103 11.028 11.028 0 0 1 .854 4.942c-.044 1.62-.212 3.145-.34 4.696l-.452 4.638c-.66 6.183-1.475 12.333-2.546 18.477a60.294 60.294 0 0 1-2.277 9.153 31.005 31.005 0 0 1-4.378 8.493 43.62 43.62 0 0 1-6.591 6.819c-1.196 1.028-2.334 2.014-3.59 3.027a12.61 12.61 0 0 1-2.104 1.377 8.162 8.162 0 0 1-2.502.79 11.89 11.89 0 0 1-9.289-3.162 29.634 29.634 0 0 1-5.856-7.555c-3.11-5.404-6.026-10.872-8.827-16.42-2.76-5.539-5.62-11.137-7.33-17.231a39.046 39.046 0 0 1-1.458-9.358 50.938 50.938 0 0 1 .656-9.409 110.249 110.249 0 0 1 4.846-18.05c4.044-11.764 9.137-23.08 13.643-34.602 4.488-11.508 8.279-23.401 9.484-35.766-.837 12.402-4.463 24.432-8.72 36.055-4.246 11.659-9.296 22.997-13.139 34.739a108.9 108.9 0 0 0-4.569 17.86 42.081 42.081 0 0 0 .913 18.066c1.666 5.858 4.494 11.365 7.276 16.884 2.804 5.502 5.744 10.958 8.834 16.282a27.87 27.87 0 0 0 5.49 7.059 12.126 12.126 0 0 0 3.666 2.204 8.44 8.44 0 0 0 4.095.48 7.535 7.535 0 0 0 3.676-1.784c1.151-.937 2.353-1.982 3.502-2.978a44.502 44.502 0 0 0 6.307-6.514c3.613-4.787 5.272-10.792 6.366-16.801 1.081-6.06 1.92-12.196 2.599-18.33l.468-4.609c.134-1.535.307-3.093.351-4.569a9.325 9.325 0 0 0-.665-4.141 5.488 5.488 0 0 0-1.192-1.622 6.242 6.242 0 0 1-1.579-2.147 4.877 4.877 0 0 1-.125-2.784 14.348 14.348 0 0 1 .779-2.344q.865-2.134 1.588-4.308a70.05 70.05 0 0 0 2.316-8.877c.566-3.054 1.172-6.055 1.512-9.102a19.874 19.874 0 0 0 .142-4.42c-.033-.324-.194-.594-.127-.501l-.997-.639c-.672-.41-1.305-.89-1.95-1.347a27.548 27.548 0 0 1-6.564-6.838c-1.777-2.624-3.097-5.433-4.907-7.858l.968.023c-3.433 4.258-6.708 8.724-9.885 13.21-1.562 2.26-3.166 4.517-4.511 6.875a24.77 24.77 0 0 0-1.588 3.74l-1.397 3.898a28.18 28.18 0 0 1-3.793 7.425c-1.699 2.23-3.784 4.063-5.578 6.138a47.604 47.604 0 0 0-8.522 14.05Z" class="color47a920 svgShape"></path>
  <path fill="#2087a9" d="M257.457 369.144c2.64 2.84 5.952 4.257 9.386 5.781a52.275 52.275 0 0 0 5.078 2.144 7.865 7.865 0 0 0 5.31-.054 5.18 5.18 0 0 1-2.584 1.463 8.111 8.111 0 0 1-3.053.117 22.008 22.008 0 0 1-5.565-1.844 23.285 23.285 0 0 1-5.051-2.936 10.258 10.258 0 0 1-3.52-4.671ZM259.25 365.49a18.054 18.054 0 0 1 .58-3.69 27.159 27.159 0 0 1 2.772-6.864 17.895 17.895 0 0 1 2.148-3.056 32.873 32.873 0 0 1-1.085 3.545c-.4 1.154-.84 2.285-1.294 3.41a75.898 75.898 0 0 1-1.44 3.35 33.392 33.392 0 0 1-1.682 3.305ZM261.215 366.88a24.138 24.138 0 0 1 .894-3.958c.383-1.29.86-2.545 1.368-3.787a40.067 40.067 0 0 1 1.752-3.625 23.909 23.909 0 0 1 2.209-3.404 32 32 0 0 1-1.14 3.881c-.435 1.265-.935 2.498-1.44 3.73-.53 1.22-1.063 2.44-1.665 3.634a32.415 32.415 0 0 1-1.978 3.528ZM263.675 368.121a24.976 24.976 0 0 1 1.064-4.318 37.392 37.392 0 0 1 3.755-8.006 24.768 24.768 0 0 1 2.644-3.577c-.466 1.424-1.028 2.779-1.607 4.12-.57 1.346-1.189 2.663-1.795 3.986-.632 1.31-1.25 2.627-1.92 3.926-.663 1.302-1.346 2.6-2.141 3.87ZM266.05 370.815a25.601 25.601 0 0 1 1.145-4.376 38.194 38.194 0 0 1 3.925-8.092 25.39 25.39 0 0 1 2.732-3.605c-.5 1.439-1.093 2.807-1.703 4.163-.6 1.36-1.248 2.69-1.882 4.027-.66 1.324-1.305 2.656-2.002 3.969-.688 1.317-1.395 2.63-2.214 3.914ZM268.87 371.37a30.194 30.194 0 0 1 1.15-3.715c.434-1.21.935-2.385 1.437-3.56.528-1.165 1.06-2.327 1.66-3.463a29.793 29.793 0 0 1 1.973-3.352 22.036 22.036 0 0 1-.892 3.8 36.753 36.753 0 0 1-1.37 3.62 37.16 37.16 0 0 1-1.753 3.45 22.243 22.243 0 0 1-2.204 3.22ZM271.75 372.895a17.842 17.842 0 0 1 .788-3.515 26.55 26.55 0 0 1 1.305-3.326 26.28 26.28 0 0 1 1.724-3.13 17.682 17.682 0 0 1 2.202-2.85 27.751 27.751 0 0 1-1.162 3.387 55.676 55.676 0 0 1-1.407 3.23 56.87 56.87 0 0 1-1.588 3.145 28.156 28.156 0 0 1-1.863 3.059ZM266.12 341.64a41.964 41.964 0 0 1 5.984-9.233c2.34-2.834 4.853-5.485 7.405-8.06 1.288-1.278 2.585-2.546 3.815-3.873.628-.653 1.22-1.336 1.822-2.014a49.536 49.536 0 0 0 1.68-2.13c2.14-2.93 3.805-6.177 5.79-9.279a41.268 41.268 0 0 1 7.174-8.428 118.504 118.504 0 0 1 4.14-3.634c1.405-1.174 2.787-2.324 4.32-3.443a15.781 15.781 0 0 1 5.2-2.524 21.917 21.917 0 0 1 5.632-.614c.927-.007 1.846.04 2.758.084a9.844 9.844 0 0 1 2.862.425c2.184.415 2.792 4.16.54 4.645l-.016-.2a1.051 1.051 0 0 0 .772-.828 2.51 2.51 0 0 0 .004-1.218 1.699 1.699 0 0 0-.556-.945 2.783 2.783 0 0 0-1.045-.488 8.893 8.893 0 0 0-2.554-.083l-2.703.182a23.415 23.415 0 0 0-5.159.903 14.735 14.735 0 0 0-4.49 2.392c-5.638 4.44-11.56 8.751-15.986 14.408-2.23 2.842-4.119 5.973-6.15 9.016a93.14 93.14 0 0 1-6.63 8.778c-2.405 2.759-4.996 5.308-7.46 7.95a84.896 84.896 0 0 0-6.976 8.311Z" class="color47a920 svgShape"></path>
  <path fill="#2087a9" d="M302.282 306.534a103.584 103.584 0 0 1 7.878-6.895 39.41 39.41 0 0 1 9.113-5.362 34.178 34.178 0 0 1 10.396-2.282c1.772-.138 3.483-.225 5.307-.208a9.758 9.758 0 0 1 5.515 1.52 4.32 4.32 0 0 1 1.165 1.213 3.16 3.16 0 0 1 .474 1.799 4.208 4.208 0 0 1-1.523 2.954 5.819 5.819 0 0 1-2.836 1.23 19.008 19.008 0 0 1-2.725.211 40.804 40.804 0 0 0-10.043 1.656 43.324 43.324 0 0 0-17.66 10.317 38.24 38.24 0 0 1 17.185-11.804 39.269 39.269 0 0 1 10.43-2.06 20.889 20.889 0 0 0 2.47-.22 3.918 3.918 0 0 0 1.898-.807 2.282 2.282 0 0 0 .828-1.542 1.576 1.576 0 0 0-.833-1.326 7.864 7.864 0 0 0-4.4-1.19c-1.654-.039-3.42.055-5.118.141a34.926 34.926 0 0 0-9.978 1.852c-6.419 2.299-12 6.63-17.543 10.803Z" class="color47a920 svgShape"></path>
  <path fill="#2087a9" d="M289.206 347.42a25.61 25.61 0 0 0 4.458-2.753 39.435 39.435 0 0 0 3.986-3.39c2.51-2.435 4.846-5.06 7.295-7.626a50.005 50.005 0 0 1 8.06-7.087 38.171 38.171 0 0 1 9.791-4.426 67.697 67.697 0 0 0 9.872-3.703 21.87 21.87 0 0 0 1.153-.624 4.983 4.983 0 0 0 1.042-.689 1.134 1.134 0 0 0 .466-.874.698.698 0 0 0-.617-.577 7.95 7.95 0 0 0-2.489.179c-.868.137-1.736.276-2.599.437a107.43 107.43 0 0 0-20.132 5.894l-3.404 1.36 2.271-2.881a40.961 40.961 0 0 1 3.794-4.259 37.491 37.491 0 0 1 4.406-3.622 35.57 35.57 0 0 1 4.9-2.91 36.233 36.233 0 0 1 5.267-2.155 38.564 38.564 0 0 1 5.518-1.343c.94-.114 1.87-.291 2.817-.331.951-.087 1.883-.086 2.712-.22a2.506 2.506 0 0 0 1.922-1.052 2.076 2.076 0 0 0-.291-2.128 4.46 4.46 0 0 0-2.033-1.549c-.828-.368-1.724-.664-2.557-1.101l.082-.182c.86.32 1.766.493 2.664.797a5.13 5.13 0 0 1 2.486 1.55 3.437 3.437 0 0 1 .726 1.392 2.556 2.556 0 0 1-.144 1.677 2.819 2.819 0 0 1-1.142 1.246 5.073 5.073 0 0 1-1.46.57c-.989.231-1.917.291-2.802.443-.901.112-1.788.313-2.68.474a44.011 44.011 0 0 0-5.207 1.528 40.467 40.467 0 0 0-9.544 5.043 39.828 39.828 0 0 0-7.885 7.343l-1.133-1.521a85.87 85.87 0 0 1 20.701-5.036c.88-.111 1.764-.2 2.646-.286l1.325-.116a3.998 3.998 0 0 1 1.446.077 1.687 1.687 0 0 1 .728.4 1.289 1.289 0 0 1 .367.803 1.798 1.798 0 0 1-.699 1.398 5.532 5.532 0 0 1-1.165.76c-.39.216-.78.43-1.182.622-3.176 1.617-6.535 2.79-9.78 4.152a41.945 41.945 0 0 0-9.171 4.866 65.074 65.074 0 0 0-7.845 6.848c-2.51 2.454-4.987 5.009-7.735 7.288a33.956 33.956 0 0 1-4.342 3.137 21.876 21.876 0 0 1-4.795 2.346Z" class="color47a920 svgShape"></path>
  <path fill="#2087a9" d="M329.236 307.706a6.92 6.92 0 0 1 1.531 1.62 10.16 10.16 0 0 1 1.008 1.84 9.978 9.978 0 0 1 .612 2.007 6.837 6.837 0 0 1 .084 2.228 6.84 6.84 0 0 1-1.534-1.619 9.98 9.98 0 0 1-1.005-1.841 10.163 10.163 0 0 1-.61-2.008 6.923 6.923 0 0 1-.086-2.227ZM337.493 306.504a28.324 28.324 0 0 1 2.28 4.133 43.388 43.388 0 0 1 1.748 4.324 21.144 21.144 0 0 1 .64 2.305 21.622 21.622 0 0 1 .334 2.362 16.374 16.374 0 0 1-.083 4.742c-.5-1.505-1.032-2.956-1.45-4.447a70.918 70.918 0 0 0-1.337-4.329c-.49-1.455-.951-2.946-1.322-4.453a28.073 28.073 0 0 1-.81-4.637ZM315.025 326.274a95.76 95.76 0 0 1 9.109 6.23 28.133 28.133 0 0 0 4.35 2.943 2.46 2.46 0 0 0 2.076.22 2.31 2.31 0 0 0 .827-.826c.192-.337.39-.798.02-1.142a.747.747 0 0 1 .498.547 1.841 1.841 0 0 1 .003.785 2.868 2.868 0 0 1-.74 1.407 2.64 2.64 0 0 1-1.604.667 4.675 4.675 0 0 1-1.605-.188 16.23 16.23 0 0 1-5.025-2.814 44.575 44.575 0 0 1-4.225-3.622 29.231 29.231 0 0 1-3.684-4.207ZM338.3 300.968a5.26 5.26 0 0 1 4.484-1.231 10.5 10.5 0 0 1 4.417 1.945c2.598 1.847 4.718 4.01 7.606 4.435a8.554 8.554 0 0 1 1.246.393 3.257 3.257 0 0 1 1.327.956 2.418 2.418 0 0 1 .47 1.852 2.827 2.827 0 0 1-.838 1.549 4.108 4.108 0 0 1-2.794.99 13.638 13.638 0 0 1-2.5-.19c-3.236-.548-6.022-2.086-8.852-2.17l.695-.817a22.405 22.405 0 0 0 1.308 4.888 17.23 17.23 0 0 1 .674 2.578 7.353 7.353 0 0 1 0 2.652 11.903 11.903 0 0 0-1.493-4.9 19.21 19.21 0 0 1-1.926-5.03l-.133-.77.827-.048a15.096 15.096 0 0 1 4.815.664 44.916 44.916 0 0 0 4.392 1.041c1.364.206 3.072.242 3.613-.327a.878.878 0 0 0 .27-.441.448.448 0 0 0-.077-.331 3.038 3.038 0 0 0-1.5-.682 10.808 10.808 0 0 1-2.346-.833 13.375 13.375 0 0 1-2.087-1.33c-1.279-.992-2.363-2.102-3.514-3.063a10.366 10.366 0 0 0-3.763-2.232 5.3 5.3 0 0 0-4.321.452Z" class="color47a920 svgShape"></path>
  <path fill="#2087a9" d="M356.732 333.09a2.84 2.84 0 0 1-2.16.783 4.891 4.891 0 0 1-2.253-.704 17.734 17.734 0 0 1-1.85-1.265c-.584-.433-1.172-.86-1.744-1.307-2.307-1.765-4.583-3.565-6.745-5.504l-3.18-2.987a14.478 14.478 0 0 0-3.307-2.661 3.577 3.577 0 0 0-3.793.172 1.923 1.923 0 0 0-.82 1.567 3.46 3.46 0 0 0 .795 1.734c1.653 2.394 3.268 4.804 4.789 7.267a20.037 20.037 0 0 1 1.159 1.978 4.117 4.117 0 0 1 .371 2.794 3.205 3.205 0 0 1-.757 1.399 2.598 2.598 0 0 1-1.616.81 3.041 3.041 0 0 1-1.621-.332 6.845 6.845 0 0 1-1.06-.663 56.068 56.068 0 0 1-12.177-12.655l.15-.133a136.972 136.972 0 0 0 13.246 11.037 2.489 2.489 0 0 0 1.258.623c.136.015.434-.227.569-.643a2.108 2.108 0 0 0-.176-1.435 18.892 18.892 0 0 0-.964-1.82c-1.45-2.522-2.807-5.098-4.125-7.69a4.287 4.287 0 0 1-.7-2.285 2.876 2.876 0 0 1 1.259-2.087 4.546 4.546 0 0 1 4.482-.228 22.226 22.226 0 0 1 3.748 2.393l3.53 2.562c2.311 1.76 4.507 3.658 6.673 5.592 1.085.943 2.15 2.016 3.192 2.878a4.514 4.514 0 0 0 1.75.898 2.624 2.624 0 0 0 1.95-.244Z" class="color47a920 svgShape"></path>
  <path fill="#2087a9" d="M335.8 336.045a55.496 55.496 0 0 0-8.782 1.465l-2.173.513a17.826 17.826 0 0 0-2.084.55 1.814 1.814 0 0 0-.71.487 1.02 1.02 0 0 0-.247.668.584.584 0 0 0 .314.47 3.195 3.195 0 0 0 .872.322 79.18 79.18 0 0 0 8.666 1.768c.722.11 1.466.175 2.274.362a4.607 4.607 0 0 1 2.369 1.245 2.577 2.577 0 0 1 .71 1.487 1.925 1.925 0 0 1-.163.986 2.222 2.222 0 0 1-.552.726 5.191 5.191 0 0 1-2.482 1.011c-.79.144-1.56.211-2.301.276l-.54.05a3.374 3.374 0 0 0-.424.078 3.073 3.073 0 0 0-.79.316c-.494.289-.682.623-.644.889a2.084 2.084 0 0 0 .774 1.172 1.275 1.275 0 0 0 .278.17.662.662 0 0 0 .253.062 4.874 4.874 0 0 0 .917-.022c.679-.059 1.443-.213 2.264-.236.646-.027 1.39-.19 2.288-.183a4.835 4.835 0 0 1 1.372.211 4.555 4.555 0 0 1 1.293.61 2.47 2.47 0 0 1 1.03 1.495 2.166 2.166 0 0 1 .037.575 1.674 1.674 0 0 1-.24.697 1.88 1.88 0 0 1-.917.72c-1.053.353-1.707.27-2.263.475a3.007 3.007 0 0 0-1.408.708.391.391 0 0 0-.07.14c-.007.034-.007.051-.006.022a.42.42 0 0 0 .014.07 2.467 2.467 0 0 0 .339.695 3.331 3.331 0 0 0 .55.647 1.355 1.355 0 0 0 .177.13 2.168 2.168 0 0 0 .371.104 16.203 16.203 0 0 0 2.078.092 19.028 19.028 0 0 1 4.629.716l.103.03.08.043a130.515 130.515 0 0 0 8.74 4.28q2.221 1 4.483 1.908c1.504.607 3.054 1.184 4.557 1.918a17.826 17.826 0 0 1 4.223 2.76 29.015 29.015 0 0 1 3.334 3.69c2.037 2.588 3.87 5.286 5.798 7.93-2.18-2.44-4.179-5.045-6.357-7.455a31.098 31.098 0 0 0-3.45-3.37 16.653 16.653 0 0 0-4.08-2.391c-1.471-.624-3.005-1.144-4.551-1.705q-2.318-.842-4.604-1.774c-3.045-1.246-6.028-2.644-8.961-4.139l.182.073a19.02 19.02 0 0 0-4.188-.586 16.255 16.255 0 0 1-2.378-.109 4.119 4.119 0 0 1-.702-.194 2.669 2.669 0 0 1-.758-.47 5.222 5.222 0 0 1-.905-1.039 4.293 4.293 0 0 1-.619-1.31 2.278 2.278 0 0 1-.072-.48 2.054 2.054 0 0 1 .055-.532 2.37 2.37 0 0 1 .399-.864 4.59 4.59 0 0 1 2.423-1.44c.863-.273 1.746-.278 2.102-.432.076-.026.05-.047-.033.072a.59.59 0 0 0-.063.194c-.008-.05-.052-.146-.232-.28a2.634 2.634 0 0 0-.72-.335 2.817 2.817 0 0 0-.827-.132c-.594-.019-1.32.124-2.161.165-.67.009-1.374.147-2.178.216a6.583 6.583 0 0 1-1.312.012 2.599 2.599 0 0 1-.821-.22 3.184 3.184 0 0 1-.673-.41 4.311 4.311 0 0 1-.965-1.064 3.288 3.288 0 0 1-.533-1.478 2.553 2.553 0 0 1 .478-1.67 3.418 3.418 0 0 1 1.147-.995 4.92 4.92 0 0 1 1.286-.489 5.21 5.21 0 0 1 .675-.109l.573-.043c.743-.05 1.458-.102 2.136-.213a3.751 3.751 0 0 0 1.643-.564c.154-.151.144-.15.15-.25a.906.906 0 0 0-.245-.488c-.673-.796-2.158-.97-3.643-1.23a68.439 68.439 0 0 1-8.75-2.152 4.175 4.175 0 0 1-1.184-.527 1.706 1.706 0 0 1-.754-1.388 2.3 2.3 0 0 1 1.698-2.08 17.833 17.833 0 0 1 2.264-.449l2.205-.368a46.38 46.38 0 0 1 8.913-.806ZM352.39 332.573a26.277 26.277 0 0 1-7.162-8.21 11.014 11.014 0 0 1-1.159-2.604 3.63 3.63 0 0 1 .515-3.11 2.558 2.558 0 0 1 1.492-.986 2.825 2.825 0 0 1 1.761.2 6.305 6.305 0 0 1 2.323 1.995 42.727 42.727 0 0 0 3.27 4.179 16.322 16.322 0 0 0 4.305 2.791 23.325 23.325 0 0 1 4.724 3.052 28.685 28.685 0 0 1 3.9 4.04 85.017 85.017 0 0 1 5.995 9.199 77.38 77.38 0 0 0 6.103 8.827c4.469 5.633 9.435 10.928 14.121 16.465a211.893 211.893 0 0 1-15.327-15.474 69.063 69.063 0 0 1-6.515-8.834 88.177 88.177 0 0 0-5.94-8.937 26.726 26.726 0 0 0-3.597-3.795 22.77 22.77 0 0 0-4.348-2.874 17.967 17.967 0 0 1-4.671-3.239 35.938 35.938 0 0 1-3.272-4.478 4.932 4.932 0 0 0-1.668-1.608 1.266 1.266 0 0 0-1.63.284 2.401 2.401 0 0 0-.425 2.056 10.62 10.62 0 0 0 .908 2.402 27.997 27.997 0 0 0 6.298 8.659Z" class="color47a920 svgShape"></path>
  <path fill="#2087a9" d="M365.95 384.75a1.638 1.638 0 0 1-1.048-.33c-.394-.31-.794-.962-.452-2.3a14.13 14.13 0 0 1 4.813-7.469l.626.78a13.126 13.126 0 0 0-4.47 6.936c-.094.37-.206 1.025.102 1.268a1.364 1.364 0 0 0 1.007.043c3.875-.786 7.408-2.612 11.522-5.11a154.27 154.27 0 0 0 11.806-7.942 10.543 10.543 0 0 0 1.888-1.654 1.317 1.317 0 0 0 .337-.617l.994.11a2.207 2.207 0 0 1-.563 1.147 11.727 11.727 0 0 1-2.06 1.817 155.723 155.723 0 0 1-11.883 7.995c-4.204 2.552-7.826 4.419-11.842 5.234a3.93 3.93 0 0 1-.777.092ZM314.05 327.315a84.78 84.78 0 0 0-7.806 20.6 158.435 158.435 0 0 0-3.663 21.746c-1.555 14.655-2.503 29.381-3.102 44.124-.74 14.738-1.205 29.505-1.922 44.256l-1.09 22.128c-.436 7.373-.803 14.749-1.3 22.12.044-7.388.217-14.77.32-22.156l.532-22.148c.149-7.384.447-14.762.67-22.144.24-7.38.482-14.764.794-22.147.767-14.76 1.687-29.531 3.578-44.216a157.334 157.334 0 0 1 4.24-21.813 80.287 80.287 0 0 1 8.748-20.35ZM276.234 434.863q.31 8.2-.004 16.398c-.181 5.464-.56 10.918-1.04 16.363-.519 5.441-1.142 10.873-1.96 16.278q-1.186 8.112-2.992 16.123.651-8.18 1.442-16.312l1.519-16.272 1.48-16.277q.706-8.144 1.555-16.3ZM338.872 293.32a29.866 29.866 0 0 1 2.987-8.614c1.347-2.738 2.955-5.285 4.4-7.913 1.516-2.591 3.054-5.169 4.694-7.692.796-1.27 1.69-2.511 2.458-3.773a10.335 10.335 0 0 0 1.662-4.078 8.676 8.676 0 0 1-.786 4.52c-.593 1.425-1.287 2.745-1.973 4.095-1.37 2.69-2.843 5.327-4.337 7.95-1.492 2.629-3.172 5.132-4.762 7.651a68.314 68.314 0 0 0-4.343 7.853ZM371.041 342.78a95.014 95.014 0 0 1 1.58-16.07 67.73 67.73 0 0 1 1.966-7.897 54.54 54.54 0 0 1 3.127-7.559 41.478 41.478 0 0 1 10.02-12.884 25.131 25.131 0 0 1 6.988-4.305 13.695 13.695 0 0 1 8.036-.787 14.716 14.716 0 0 0-7.64 1.685 26.856 26.856 0 0 0-6.347 4.574 45.832 45.832 0 0 0-9.277 12.627 65.995 65.995 0 0 0-5.353 14.875c-1.263 5.17-2.198 10.44-3.1 15.741Z" class="color47a920 svgShape"></path>
  <path fill="#2087a9" d="M436.705 421.207c-.494-8.058-.563-16.129-.656-24.19q-.054-12.092-.01-24.172c.04-8.05.224-16.11-.274-24.135a96.852 96.852 0 0 0-4.527-23.614 71.9 71.9 0 0 0-10.99-21.163 70.449 70.449 0 0 0-17.6-15.936 229.952 229.952 0 0 0-20.895-11.891l-10.716-5.6a100.901 100.901 0 0 1-10.554-6.036l.057.033-.037-.023-.051-.03-.458-.334-.229-.167a3.676 3.676 0 0 1-.27-.213l.333.138h-.007l-.165-.004-.113-.086a20.28 20.28 0 0 1-4.07-4.075 11.986 11.986 0 0 1-2.241-5.255l.196-.039a12.188 12.188 0 0 0 2.516 4.928 20.312 20.312 0 0 0 4.154 3.68l-.277-.09h.007l.12-.003.213.14.836.551-.05-.029.037.022.045.025.012.008a107.007 107.007 0 0 0 10.686 5.492l10.871 5.296a175.555 175.555 0 0 1 21.235 11.796 65.437 65.437 0 0 1 28.233 38.605c4.61 15.573 5.375 31.907 5.713 48.002.16 16.14-.455 32.247-.874 48.365ZM438.089 404.075a14.636 14.636 0 0 1 3.106 2.293 21.797 21.797 0 0 1 2.55 2.843 21.563 21.563 0 0 1 2.015 3.244 14.513 14.513 0 0 1 1.326 3.627 26.257 26.257 0 0 1-2.628-2.767 62.198 62.198 0 0 1-4.449-5.942 26.662 26.662 0 0 1-1.92-3.298ZM441.142 400.05a22.933 22.933 0 0 1 2.695.438c.848.182 1.67.375 2.491.579.82.203 1.638.418 2.472.655a22.285 22.285 0 0 1 2.585.88 6.899 6.899 0 0 1-2.753.683 9.686 9.686 0 0 1-5.379-1.342 6.954 6.954 0 0 1-2.111-1.892ZM439.594 396.77a19.634 19.634 0 0 1 2.566-1.609c.86-.46 1.72-.882 2.593-1.28a42.73 42.73 0 0 1 2.669-1.112 19.241 19.241 0 0 1 2.9-.871 9.284 9.284 0 0 1-2.13 2.243 13.204 13.204 0 0 1-2.612 1.561 13.35 13.35 0 0 1-2.896.936 9.368 9.368 0 0 1-3.09.131ZM406.382 377.58c-8.848 11.447-22.034 18.556-33.586 24.234-.384-.648-.776-1.303-1.145-1.958 11.371-5.58 24.354-12.546 32.939-23.638.602.452 1.205.903 1.792 1.363ZM396.482 435.113a70.924 70.924 0 0 1 4.618 16.795l2.878 17.123 2.783 17.133q1.391 8.57 2.58 17.192-2.328-8.39-4.115-16.907c-1.215-5.67-2.26-11.374-3.22-17.093a411.28 411.28 0 0 1-2.444-17.216 109.012 109.012 0 0 0-3.08-17.027ZM444.917 481.075a37.52 37.52 0 0 1-8.529-9.227l.838-.547a36.536 36.536 0 0 0 8.301 8.983ZM482.062 327.763a35.815 35.815 0 0 0-.702-15.864 77.318 77.318 0 0 0-5.725-14.925c-2.344-4.828-4.858-9.62-7.038-14.634a99.33 99.33 0 0 1-5.18-15.547 92.954 92.954 0 0 1-2.412-16.21c-.311-5.46-.117-10.874-.157-16.25-.012-2.689-.06-5.372-.257-8.039a55.34 55.34 0 0 0-1.041-7.935 33.578 33.578 0 0 0-6.535-14.402 35.43 35.43 0 0 0-12.577-9.642 45.049 45.049 0 0 0-15.365-4 63.744 63.744 0 0 0-15.896.81 106.398 106.398 0 0 0-15.521 3.857 72.306 72.306 0 0 0-14.577 6.214 35 35 0 0 0-11.41 10.285 13.905 13.905 0 0 0-2.495 6.733 14.174 14.174 0 0 0 1.533 7.025 23.801 23.801 0 0 0 4.388 6.161 76.775 76.775 0 0 0 5.842 5.369l-2.275 1.91a12.785 12.785 0 0 1-1.306-8.361 25.73 25.73 0 0 1 2.578-7.626c1.177-2.333 2.48-4.518 3.576-6.75a24.667 24.667 0 0 0 2.362-6.882l.008-.05a1.09 1.09 0 0 1 2.165.144 36.876 36.876 0 0 0 4.626 16.587 38.963 38.963 0 0 0 5.024 7.168 38.146 38.146 0 0 0 6.578 5.864l-.163.253a35.306 35.306 0 0 1-7.065-5.505 38.498 38.498 0 0 1-11.182-24.25l2.173.094a25.694 25.694 0 0 1-2.344 7.612c-1.09 2.378-2.344 4.613-3.403 6.863a23.064 23.064 0 0 0-2.134 6.863 10.036 10.036 0 0 0 1.11 6.457 1.504 1.504 0 0 1-2.25 1.93l-.025-.02a79.498 79.498 0 0 1-6.141-5.514 26.945 26.945 0 0 1-5.036-6.922 17.32 17.32 0 0 1-1.832-8.631 16.857 16.857 0 0 1 3.048-8.282 37.969 37.969 0 0 1 12.585-11.063 74.128 74.128 0 0 1 15.25-6.234 108.823 108.823 0 0 1 15.983-3.528 65.506 65.506 0 0 1 16.39-.191 47.45 47.45 0 0 1 15.675 4.633 38.185 38.185 0 0 1 12.807 10.05 32.08 32.08 0 0 1 4.308 6.967 38.502 38.502 0 0 1 2.673 7.742 59.523 59.523 0 0 1 1.4 8.059c.316 2.707.483 5.422.61 8.128.25 5.415.327 10.809.794 16.12a107.725 107.725 0 0 0 2.535 15.762 100.026 100.026 0 0 0 4.868 15.204c2 4.946 4.444 9.757 6.618 14.733a72.343 72.343 0 0 1 5.2 15.495 34.896 34.896 0 0 1-.372 16.237Z" class="color47a920 svgShape"></path>
  <path fill="#2087a9" d="M398.378 226.286a21.034 21.034 0 0 0 1.303 8.897 47.457 47.457 0 0 0 3.947 8.11c1.54 2.61 3.155 5.216 4.571 7.979a62.21 62.21 0 0 1 3.572 8.574 60.283 60.283 0 0 1 2.986 18.262 62.32 62.32 0 0 1-.648 9.206c-.404 2.982-.652 6.085.646 8.905a10.141 10.141 0 0 1-1.492-4.352 28.682 28.682 0 0 1-.131-4.634 78.197 78.197 0 0 0 .065-9.078 68.91 68.91 0 0 0-3.325-17.687 64.07 64.07 0 0 0-3.364-8.355c-1.273-2.72-2.84-5.333-4.241-8.07a41.67 41.67 0 0 1-3.518-8.575 19.772 19.772 0 0 1-.37-9.182ZM430.913 260.962a66.713 66.713 0 0 0 7.579 40.501c3.306 6.122 7.76 11.547 12.422 16.773 4.624 5.267 9.484 10.41 13.72 16.113a70.259 70.259 0 0 1 10.058 18.685 49.836 49.836 0 0 1 2.347 10.366 44.301 44.301 0 0 1-.147 10.604 36.294 36.294 0 0 0-.221 10.43 24.716 24.716 0 0 0 3.75 9.621 27.096 27.096 0 0 0 7.234 7.355 24.4 24.4 0 0 0 9.48 3.839l-.44 1.168a18.171 18.171 0 0 1-3.9-3.211 19.915 19.915 0 0 1-2.823-4.177 27.231 27.231 0 0 1-2.62-9.62 36.148 36.148 0 0 1 .461-9.92c.569-3.249 1.403-6.42 2.269-9.553.86-3.133 1.758-6.237 2.437-9.364.347-1.562.635-3.13.84-4.704a30.44 30.44 0 0 0 .321-4.692 16.36 16.36 0 0 0-.631-4.511 16.93 16.93 0 0 0-1.942-4.135 82.13 82.13 0 0 0-5.909-7.554q-12.444-15.03-23.396-31.203a109.787 109.787 0 0 1-9.452-17.111 43.94 43.94 0 0 1-2.901-9.359 26.862 26.862 0 0 1-.106-9.749l.198.033a26.456 26.456 0 0 0 .508 9.594 46.584 46.584 0 0 0 3.205 9.082 111.9 111.9 0 0 0 9.819 16.65c7.418 10.593 15.475 20.77 23.703 30.755a83.218 83.218 0 0 1 6.096 7.748 19.013 19.013 0 0 1 2.193 4.64 18.467 18.467 0 0 1 .74 5.092c-.083 6.78-2.104 13.095-3.865 19.31-1.78 6.204-3.443 12.474-2.906 18.807a25.645 25.645 0 0 0 2.299 9.094 19.322 19.322 0 0 0 2.515 3.925 16.846 16.846 0 0 0 3.507 3.048l2.686 1.782-3.126-.614a25.825 25.825 0 0 1-9.834-4.267 27.976 27.976 0 0 1-7.298-7.767 25.608 25.608 0 0 1-3.767-9.93c-.593-3.548-.095-7.117.243-10.6a43.58 43.58 0 0 0 .029-10.448 44.044 44.044 0 0 0-2.533-10.12 69.312 69.312 0 0 0-10.39-18.063c-4.26-5.527-9.12-10.6-13.79-15.89-4.631-5.31-9.122-10.893-12.45-17.215a64.008 64.008 0 0 1-6.41-41.27Z" class="color47a920 svgShape"></path>
  <path fill="#2087a9" d="M498.833 399.086a22.053 22.053 0 0 1-7.493-4.777 10.895 10.895 0 0 1-3.18-8.52 11.214 11.214 0 0 1 1.592-4.435 38.378 38.378 0 0 1 2.602-3.689 42.064 42.064 0 0 0 4.664-7.233 30.135 30.135 0 0 0 2.831-8.024 22.586 22.586 0 0 0 .148-8.43 20.683 20.683 0 0 0-3.167-7.868 16.746 16.746 0 0 0-6.395-5.747 16.035 16.035 0 0 1 7.183 5.164 20.425 20.425 0 0 1 2.41 3.835 22.14 22.14 0 0 1 1.497 4.298 22.857 22.857 0 0 1 .187 9.09 31.183 31.183 0 0 1-2.91 8.584 42.203 42.203 0 0 1-4.966 7.501c-1.854 2.254-3.677 4.513-4.136 7.166a10.033 10.033 0 0 0 2.373 7.666 23.998 23.998 0 0 0 6.76 5.419ZM376.633 225.72a34.46 34.46 0 0 1 2.056 5.887 22.732 22.732 0 0 1 .775 6.251 24.575 24.575 0 0 1-1.226 6.209 22.721 22.721 0 0 1-2.557 5.764c-.59.91-1.297 1.724-1.905 2.488a5.618 5.618 0 0 0-1.256 2.265 1.975 1.975 0 0 0 .792 1.853 15.788 15.788 0 0 1 2.333 2.255 5.8 5.8 0 0 1 .919 3.539 17.662 17.662 0 0 1-.5 3.186 19.541 19.541 0 0 0-.51 2.922 3.755 3.755 0 0 0 .752 2.71l-.133.15a3.927 3.927 0 0 1-1.64-2.796 14.003 14.003 0 0 1-.027-3.215c.157-2.034.352-4.077-.596-5.255a27.794 27.794 0 0 0-2.083-2.034 4.726 4.726 0 0 1-1.048-1.645 3.688 3.688 0 0 1-.1-2.061 6.395 6.395 0 0 1 1.905-2.95c.773-.759 1.573-1.357 2.233-2.084a11.59 11.59 0 0 0 2.795-5.262 18.957 18.957 0 0 0 .188-6.006 105.083 105.083 0 0 0-.633-5.991c-.26-2.015-.595-4.044-.728-6.132ZM380.632 271.236a6.116 6.116 0 0 1 1.224-1.155 7.711 7.711 0 0 1 1.255-.733 7.489 7.489 0 0 1 1.371-.482 6.015 6.015 0 0 1 1.675-.179 3.396 3.396 0 0 1-.869 1.53 4.4 4.4 0 0 1-1.34.947 4.454 4.454 0 0 1-1.59.401 3.424 3.424 0 0 1-1.726-.329ZM399.668 284.859c1.032-.73 1.979-1.39 2.877-2.108a53.68 53.68 0 0 0 2.613-2.204l2.577-2.33a28.807 28.807 0 0 1 2.825-2.291 12.851 12.851 0 0 1-1.637 3.322 14.916 14.916 0 0 1-2.435 2.793 12.304 12.304 0 0 1-3.143 2.058 8.137 8.137 0 0 1-3.677.76ZM381.7 233.452a4.363 4.363 0 0 1 2.395-1.84 10.158 10.158 0 0 1 2.87-.679 9.676 9.676 0 0 1 2.955.182 6.891 6.891 0 0 1 2.724 1.223c-1.012.182-1.927.25-2.834.345l-2.67.242-2.69.214a12.957 12.957 0 0 0-2.75.313ZM219.364 126.543l.385-.923 12.068 5.028-.385.923zM223.829 218.871l.841-.54 6.034 9.385-.841.541zM196.761 297.377a17.228 17.228 0 0 1 2.583 2.502 28.399 28.399 0 0 1 2.108 2.815 27.894 27.894 0 0 1 1.749 3.05 17.005 17.005 0 0 1 1.27 3.365 17.003 17.003 0 0 1-2.584-2.501 27.902 27.902 0 0 1-2.106-2.816 28.399 28.399 0 0 1-1.747-3.052 17.226 17.226 0 0 1-1.273-3.363ZM192.068 369.783a12.697 12.697 0 0 1 3.07.087 20.391 20.391 0 0 1 2.911.63 20.037 20.037 0 0 1 2.79 1.043 12.537 12.537 0 0 1 2.627 1.593 12.537 12.537 0 0 1-3.072-.084 20.033 20.033 0 0 1-2.909-.633 20.388 20.388 0 0 1-2.788-1.046 12.696 12.696 0 0 1-2.629-1.59ZM230.542 349.654a30.972 30.972 0 0 1-.245 4.937 53.885 53.885 0 0 1-2.007 9.555 30.624 30.624 0 0 1-1.768 4.616 30.623 30.623 0 0 1 .241-4.937 53.884 53.884 0 0 1 2.013-9.553 30.964 30.964 0 0 1 1.766-4.618ZM249.726 455.599a18.672 18.672 0 0 1 3.747-.1 30.963 30.963 0 0 1 3.643.458 30.418 30.418 0 0 1 3.564.88 18.438 18.438 0 0 1 3.46 1.444 18.433 18.433 0 0 1-3.747.102 30.426 30.426 0 0 1-3.643-.46 30.962 30.962 0 0 1-3.564-.883 18.678 18.678 0 0 1-3.46-1.441ZM480.196 260.242l.99-.147 1.34 9.051-.99.147zM460.434 186.9l.956-.292 3.688 12.068-.956.293zM385.813 173.422l.026-1 13.409.348-.026 1zM363.309 122.706l.78-.625 8.046 10.057-.78.624zM274.47 131.283l13.408-1.676.124.992-13.409 1.676zM346.718 61.384h1V85.52h-1zM405.46 141.655l.953-.303 4.693 14.75-.953.302zM474.842 453.784l3.359-11.73.962.275-3.358 11.73zM419.135 471.471l.42-.906 9.387 4.359-.42.906zM440.036 450.077l7.04-1.337.186.983-7.04 1.336zM258.112 436.375c.956-.369 1.838-.622 2.7-.904l2.525-.822 2.506-.88c.855-.3 1.71-.631 2.696-.916a6.633 6.633 0 0 1-1.927 2.287 9.142 9.142 0 0 1-5.58 1.883 6.678 6.678 0 0 1-2.92-.648ZM400.794 373.462a92.974 92.974 0 0 1-30.98 23.036q-.52-1.017-.994-2.034a90.592 90.592 0 0 0 30.107-22.298c.625.422 1.25.859 1.867 1.296Z" class="color47a920 svgShape"></path>
  <path fill="#44a8ca" d="M253.878 206.452c5.963-2.413 18.879-3.942 24.857-1.567a13.38 13.38 0 0 1 6.364 4.657c2.071 3.097 2.025 7.079 2.514 10.772a34.265 34.265 0 0 0 3.022 10.206c2.198-.966 1.875-4.085 1.931-6.485.1-4.192 2.453-7.953 4.73-11.474 1.32-2.041 2.7-4.144 4.744-5.458a8.568 8.568 0 0 1 13.185 7.74c-.177 2.842-1.761 5.57-1.34 8.386.373 2.494 2.232 4.47 4.04 6.228a162.37 162.37 0 0 0 20.998 17.24 1.869 1.869 0 0 0 .79.377c1.15.147 1.443-1.52 1.42-2.679-.067-3.308 1.2-6.486 2.55-9.507 5.62-12.58 13.168-24.633 15.198-38.26a50.128 50.128 0 0 0-11.107-39.16 25.024 25.024 0 0 0-8.532-6.96c-4.483-2.026-9.58-1.97-14.468-2.52-11.127-1.255-22.24-5.812-33.188-3.461-4.65.999-8.939 3.198-13.33 5.027-7.532 3.136-15.581 5.268-22.387 9.768s-12.32 12.232-11.195 20.313c.413 2.965 1.675 5.732 2.688 8.549 2.983 8.3 2.834 19.758 6.516 18.268Z" class="color68ca44 svgShape"></path>
  <path fill="#2399c1" d="M254.001 204.885a14.79 14.79 0 0 0-2.818-.758c.64 1.844 1.447 2.83 2.695 2.324a24.674 24.674 0 0 1 2.023-.698 20.096 20.096 0 0 0-1.9-.868ZM347.775 157.469a25.026 25.026 0 0 0-8.533-6.96c-4.483-2.027-9.58-1.971-14.468-2.522-11.127-1.253-22.24-5.81-33.187-3.46a33.46 33.46 0 0 0-4.092 1.186c4.174.863 8.36 1.802 12.545 2.274 4.89.551 9.985.495 14.468 2.521a25.023 25.023 0 0 1 8.533 6.96 50.127 50.127 0 0 1 11.107 39.16c-1.864 12.504-8.37 23.685-13.772 35.162a162.382 162.382 0 0 0 18.547 14.908 1.87 1.87 0 0 0 .79.376c1.15.147 1.443-1.52 1.42-2.679-.067-3.308 1.2-6.486 2.55-9.507 5.62-12.58 13.168-24.634 15.198-38.26a50.127 50.127 0 0 0-11.106-39.16ZM289.151 223.229c-.42-2.816 1.163-5.544 1.34-8.387a8.497 8.497 0 0 0-9.67-8.985 11.71 11.71 0 0 1 4.278 3.685c2.071 3.097 2.025 7.079 2.514 10.772a34.269 34.269 0 0 0 3.022 10.206 2.914 2.914 0 0 0 1.61-2.014 10.053 10.053 0 0 1-3.094-5.277Z" class="color4fc123 svgShape"></path>
</svg>